<?xml version="1.0" encoding="utf-8"?>
<!-- Generator: Adobe Illustrator 23.0.1, SVG Export Plug-In . SVG Version: 6.00 Build 0)  -->
<svg version="1.1" id="Layer_1" xmlns="http://www.w3.org/2000/svg" xmlns:xlink="http://www.w3.org/1999/xlink" x="0px" y="0px"
	 viewBox="0 0 252 506.3" style="enable-background:new 0 0 252 506.3;" xml:space="preserve">
<style type="text/css">
	.st0{fill:#FFFFFF;}
	.st1{fill:#DCDCE9;}
	.st2{fill:url(#Intersection_4_1_);}
	.st3{fill:#EFF2FB;}
	.st4{enable-background:new    ;}
	.st5{fill:#FB9400;}
	.st6{opacity:0.35;}
	.st7{fill:none;}
	.st8{fill:none;stroke:#FFFFFF;stroke-width:0.191;stroke-miterlimit:10;}
	.st9{opacity:0.4;fill:#FFFFFF;enable-background:new    ;}
	.st10{opacity:0.2;fill:#FFFFFF;enable-background:new    ;}
</style>
<path id="body" class="st0" d="M37.6,506.3c-19.5,0-35.2-15.8-35.2-35.2c0,0,0,0,0,0V186.8c-1.3,0-2.3-1.1-2.3-2.3l0,0v-31.7
	c0-1.3,1.1-2.3,2.3-2.3c0,0,0,0,0,0V141c-1.3,0-2.3-1.1-2.3-2.3v-31.7c0-1.3,1.1-2.3,2.3-2.4c0,0,0,0,0,0l0,0V86.9
	c-1.3,0-2.3-1-2.3-2.3V70.5c0-1.3,1.1-2.3,2.3-2.4c0,0,0,0,0,0l0,0V35.2C2.3,15.8,18.1,0,37.6,0h176.8c19.5,0,35.2,15.8,35.2,35.2v0
	v81.7c1.3,0,2.3,1.1,2.3,2.3l0,0v52.9c0,1.3-1.1,2.4-2.3,2.4l0,0v296.6c0,19.5-15.8,35.2-35.2,35.2c0,0,0,0,0,0H37.6z"/>
<path id="camera" class="st1" d="M149.8,20c0-1.9,1.6-3.5,3.6-3.5c1.9,0,3.4,1.6,3.5,3.5l0,0c0,1.9-1.6,3.5-3.5,3.5l0,0
	C151.4,23.5,149.8,21.9,149.8,20z M112.2,21.7c-1,0-1.8-0.8-1.8-1.8l0,0c0-1,0.8-1.8,1.8-1.8h27.6c1,0,1.8,0.8,1.8,1.8
	c0,1-0.8,1.8-1.8,1.8L112.2,21.7z"/>
<linearGradient id="Intersection_4_1_" gradientUnits="userSpaceOnUse" x1="-828.2117" y1="793.4011" x2="-829.2297" y2="792.3861" gradientTransform="matrix(220.0611 0 0 -476.731 182493.7656 378253.125)">
	<stop  offset="0" style="stop-color:#A52EFF"/>
	<stop  offset="0.498" style="stop-color:#6747F8"/>
	<stop  offset="0.647" style="stop-color:#6049F7"/>
	<stop  offset="0.863" style="stop-color:#4C51F4"/>
	<stop  offset="1" style="stop-color:#3D58F3"/>
</linearGradient>
<path id="Intersection_4" class="st2" d="M38.5,491.4c-2.3,0-4.6-0.3-6.8-1c-0.5-0.2-1-0.4-1.5-0.6c-8.7-3.7-14.4-12.2-14.3-21.6
	v-430c0-13,10.5-23.5,23.5-23.5c0,0,0,0,0,0h22.3c1.6,0,2.9,1.3,2.9,2.9v1.8c0,7.1,5.8,12.9,12.9,12.9c0,0,0,0,0,0h98.1
	c6.5,0,11.7-5.2,11.7-11.7c0,0,0,0,0,0v-2.9c0-1.6,1.3-2.9,2.9-2.9h22.3c10.4,0,19.6,6.9,22.5,16.8c0.5,1.9,0.7,3.8,0.7,5.8v431.3
	c0,12.6-10.2,22.9-22.9,22.9l0,0H38.5z"/>
<g id="Rectangle_69">
	<path id="Path_1" class="st3" d="M43.3,307.9h-7.2c-1.3,0-2.4-1.1-2.4-2.4c0,0,0,0,0,0v-7.2c0-1.3,1.1-2.4,2.4-2.4h7.2
		c1.3,0,2.4,1.1,2.4,2.4v7.2C45.7,306.8,44.6,307.9,43.3,307.9z M36.1,297c-0.7,0-1.2,0.6-1.2,1.2v7.2c0,0.7,0.6,1.2,1.2,1.2h7.2
		c0.7,0,1.2-0.6,1.2-1.2v-7.2c0-0.7-0.6-1.2-1.2-1.2L36.1,297z"/>
</g>
<g id="Keep_me_signed">
	<g class="st4">
		<path class="st3" d="M56.4,304.9l-1.9-2.6l-1,1.1v1.5h-1V299h1v3l2.8-3h1.2l-2.3,2.5l2.4,3.4H56.4z"/>
		<path class="st3" d="M62.4,303H59c0.2,0.7,0.7,1.1,1.4,1.1c0.5,0,0.9-0.2,1.3-0.5l0.5,0.5c-0.4,0.5-1.1,0.8-1.9,0.8
			c-1.4,0-2.3-0.9-2.3-2.3c0-1.4,0.9-2.3,2.3-2.3C61.9,300.4,62.5,301.4,62.4,303z M61.6,302.3c0-0.7-0.5-1.2-1.2-1.2
			c-0.7,0-1.2,0.4-1.3,1.2H61.6z"/>
		<path class="st3" d="M67.4,303H64c0.2,0.7,0.7,1.1,1.4,1.1c0.5,0,0.9-0.2,1.3-0.5l0.5,0.5c-0.4,0.5-1.1,0.8-1.9,0.8
			c-1.4,0-2.3-0.9-2.3-2.3c0-1.4,0.9-2.3,2.3-2.3C66.8,300.4,67.5,301.4,67.4,303z M66.5,302.3c0-0.7-0.5-1.2-1.2-1.2
			c-0.7,0-1.2,0.4-1.3,1.2H66.5z"/>
		<path class="st3" d="M73.1,302.7c0,1.3-0.8,2.3-2.1,2.3c-0.7,0-1.3-0.3-1.6-0.8v2.4h-1v-6.1h1v0.8c0.3-0.5,0.9-0.8,1.6-0.8
			C72.2,300.4,73.1,301.3,73.1,302.7z M72.1,302.6c0-0.8-0.6-1.4-1.4-1.4c-0.8,0-1.4,0.6-1.4,1.4c0,0.9,0.6,1.5,1.4,1.5
			C71.6,304.1,72.1,303.5,72.1,302.6z"/>
		<path class="st3" d="M83.8,302.1v2.8h-1v-2.5c0-0.7-0.4-1.1-1.1-1.1c-0.8,0-1.2,0.6-1.2,1.4v2.2h-1v-2.5c0-0.7-0.4-1.1-1.1-1.1
			c-0.8,0-1.2,0.6-1.2,1.4v2.2h-1v-4.5h1v0.9c0.3-0.6,0.9-0.9,1.6-0.9c0.8,0,1.3,0.4,1.6,1.1c0.3-0.8,0.9-1.1,1.7-1.1
			C83.1,300.4,83.8,301,83.8,302.1z"/>
		<path class="st3" d="M89,303h-3.4c0.2,0.7,0.7,1.1,1.4,1.1c0.5,0,0.9-0.2,1.3-0.5l0.5,0.5c-0.4,0.5-1.1,0.8-1.9,0.8
			c-1.4,0-2.3-0.9-2.3-2.3c0-1.4,0.9-2.3,2.3-2.3C88.5,300.4,89.1,301.4,89,303z M88.2,302.3c0-0.7-0.5-1.2-1.2-1.2
			c-0.7,0-1.2,0.4-1.3,1.2H88.2z"/>
		<path class="st3" d="M93.4,301.1c-0.4,0-0.7,0.1-0.7,0.4c0,0.8,2.4,0.4,2.4,2c0,0.9-0.8,1.3-1.7,1.3c-0.7,0-1.4-0.2-1.8-0.6
			l0.3-0.7c0.4,0.3,1,0.6,1.5,0.6c0.4,0,0.7-0.1,0.7-0.5c0-0.9-2.4-0.4-2.3-2c0-0.9,0.8-1.3,1.7-1.3c0.6,0,1.2,0.2,1.6,0.5l-0.4,0.7
			C94.3,301.3,93.8,301.1,93.4,301.1z"/>
		<path class="st3" d="M97.2,299.1c0,0.3-0.2,0.6-0.6,0.6c-0.3,0-0.6-0.2-0.6-0.6c0-0.3,0.2-0.6,0.6-0.6
			C96.9,298.5,97.2,298.8,97.2,299.1z M97.1,300.4v4.5h-1v-4.5H97.1z"/>
		<path class="st3" d="M102.6,300.4v4c0,1.3-0.9,2.1-2.3,2.1c-0.7,0-1.3-0.2-1.9-0.6l0.4-0.7c0.4,0.3,0.9,0.5,1.4,0.5
			c0.9,0,1.4-0.5,1.4-1.3v-0.6c-0.3,0.5-0.8,0.8-1.5,0.8c-1.2,0-2-0.9-2-2.2c0-1.3,0.8-2.1,2-2.1c0.7,0,1.2,0.3,1.5,0.8v-0.7H102.6z
			 M101.6,302.5c0-0.8-0.5-1.4-1.3-1.4c-0.8,0-1.3,0.6-1.3,1.4c0,0.8,0.5,1.4,1.3,1.4C101.1,303.9,101.6,303.3,101.6,302.5z"/>
		<path class="st3" d="M108.2,302.1v2.8h-1v-2.5c0-0.7-0.4-1.1-1.1-1.1c-0.7,0-1.2,0.5-1.3,1.2v2.4h-1v-4.5h1v0.9
			c0.3-0.6,0.9-0.9,1.7-0.9C107.6,300.4,108.2,301,108.2,302.1z"/>
		<path class="st3" d="M113.4,303h-3.4c0.2,0.7,0.7,1.1,1.4,1.1c0.5,0,0.9-0.2,1.3-0.5l0.5,0.5c-0.4,0.5-1.1,0.8-1.9,0.8
			c-1.4,0-2.3-0.9-2.3-2.3c0-1.4,0.9-2.3,2.3-2.3C112.9,300.4,113.6,301.4,113.4,303z M112.6,302.3c0-0.7-0.5-1.2-1.2-1.2
			c-0.7,0-1.2,0.4-1.3,1.2H112.6z"/>
		<path class="st3" d="M118.7,298.6v6.3h-1v-0.8c-0.3,0.5-0.9,0.8-1.6,0.8c-1.3,0-2.1-0.9-2.1-2.3c0-1.3,0.9-2.3,2.1-2.3
			c0.7,0,1.3,0.3,1.6,0.8v-2.5H118.7z M117.7,302.7c0-0.9-0.6-1.5-1.4-1.5s-1.4,0.6-1.4,1.5c0,0.9,0.6,1.5,1.4,1.5
			C117.2,304.1,117.7,303.5,117.7,302.7z"/>
	</g>
</g>
<g id="Group_1">
	<path id="Rectangle_70-3" class="st5" d="M43,322.3h165.4c9.1,0,16.5,7.4,16.5,16.5l0,0c0,9.1-7.4,16.5-16.5,16.5c0,0,0,0,0,0H43
		c-9.1,0-16.5-7.4-16.5-16.5v0l0,0C26.5,329.7,33.9,322.3,43,322.3C43,322.3,43,322.3,43,322.3z"/>
</g>
<g id="Get_to_App">
	<g class="st4">
		<path class="st0" d="M102.1,339h1.5v2.9c-0.8,0.6-2,1-3.1,1c-2.3,0-4-1.7-4-3.9c0-2.2,1.8-3.8,4.1-3.8c1.1,0,2.3,0.4,3,1.1l-1,1.2
			c-0.6-0.5-1.3-0.8-2.1-0.8c-1.3,0-2.4,1-2.4,2.4c0,1.3,1,2.4,2.4,2.4c0.5,0,1-0.2,1.5-0.4V339z"/>
		<path class="st0" d="M110.4,340.4h-4.2c0.2,0.7,0.8,1.2,1.5,1.2c0.6,0,1.1-0.2,1.5-0.6l0.9,0.9c-0.6,0.6-1.4,1-2.5,1
			c-1.9,0-3-1.2-3-3c0-1.8,1.2-3,3-3C109.6,336.9,110.6,338.3,110.4,340.4z M108.9,339.4c0-0.8-0.5-1.3-1.3-1.3
			c-0.7,0-1.2,0.5-1.4,1.3H108.9z"/>
		<path class="st0" d="M115.1,342.5c-0.4,0.2-1,0.4-1.5,0.4c-1,0-1.8-0.6-1.8-1.8v-2.7H111v-1.1h0.8v-1.6h1.7v1.6h1.6v1.2h-1.6v2.4
			c0,0.5,0.2,0.7,0.6,0.7c0.2,0,0.5-0.1,0.8-0.2L115.1,342.5z"/>
		<path class="st0" d="M122.4,342.5c-0.4,0.2-1,0.4-1.5,0.4c-1,0-1.8-0.6-1.8-1.8v-2.7h-0.8v-1.1h0.8v-1.6h1.7v1.6h1.6v1.2h-1.6v2.4
			c0,0.5,0.2,0.7,0.6,0.7c0.2,0,0.5-0.1,0.8-0.2L122.4,342.5z"/>
		<path class="st0" d="M129.1,339.9c0,1.8-1.3,3-3.1,3c-1.9,0-3.1-1.2-3.1-3c0-1.8,1.3-3,3.1-3C127.8,336.9,129.1,338.1,129.1,339.9
			z M124.5,339.9c0,1,0.6,1.6,1.4,1.6c0.9,0,1.4-0.6,1.4-1.6s-0.6-1.6-1.4-1.6C125.1,338.3,124.5,338.9,124.5,339.9z"/>
		<path class="st0" d="M137.8,341.3h-3.5l-0.6,1.5H132l3.3-7.6h1.8l3.2,7.6h-1.8L137.8,341.3z M137.3,339.9l-1.2-2.9l-1.2,2.9H137.3
			z"/>
		<path class="st0" d="M147.3,339.9c0,1.8-1.1,2.9-2.7,2.9c-0.8,0-1.5-0.3-1.9-0.9v2.9h-1.7V337h1.7v0.9c0.4-0.6,1-0.9,1.8-0.9
			C146.2,336.9,147.3,338.1,147.3,339.9z M145.6,339.8c0-0.9-0.6-1.6-1.4-1.6s-1.5,0.7-1.5,1.6c0,1,0.6,1.6,1.5,1.6
			S145.6,340.8,145.6,339.8z"/>
		<path class="st0" d="M154.7,339.9c0,1.8-1.1,2.9-2.7,2.9c-0.8,0-1.5-0.3-1.9-0.9v2.9h-1.7V337h1.7v0.9c0.4-0.6,1-0.9,1.8-0.9
			C153.6,336.9,154.7,338.1,154.7,339.9z M153,339.8c0-0.9-0.6-1.6-1.4-1.6s-1.5,0.7-1.5,1.6c0,1,0.6,1.6,1.5,1.6
			S153,340.8,153,339.8z"/>
	</g>
</g>
<g id="Create_account">
	<g class="st4">
		<path class="st0" d="M29.9,378.1c-1.1,0-2,0.9-2,2c0,1.1,0.9,2,2,2c0.6,0,1.2-0.3,1.6-0.7l0.7,0.7c-0.6,0.6-1.5,1-2.3,1
			c-1.7,0-3.1-1.3-3.1-3c0-1.7,1.4-3,3.1-3c0.8,0,1.7,0.4,2.3,0.9l-0.7,0.8C31,378.4,30.4,378.1,29.9,378.1z"/>
		<path class="st0" d="M35.6,378.5v1.1c-1-0.1-1.5,0.5-1.5,1.3v2.2H33v-4.5h1.1v0.9C34.4,378.8,34.9,378.5,35.6,378.5z"/>
		<path class="st0" d="M40.4,381.2h-3.3c0.1,0.6,0.6,1,1.3,1c0.5,0,0.9-0.2,1.2-0.5l0.6,0.6c-0.4,0.5-1.1,0.8-1.9,0.8
			c-1.4,0-2.3-0.9-2.3-2.3c0-1.4,0.9-2.3,2.3-2.3C39.9,378.5,40.5,379.6,40.4,381.2z M39.4,380.5c0-0.7-0.5-1.1-1.2-1.1
			c-0.6,0-1.1,0.4-1.2,1.1H39.4z"/>
		<path class="st0" d="M44,383.1v-0.5c-0.3,0.4-0.8,0.6-1.5,0.6c-1,0-1.6-0.6-1.6-1.4c0-0.8,0.6-1.3,1.7-1.4H44v-0.1
			c0-0.5-0.3-0.8-1-0.8c-0.4,0-0.9,0.1-1.3,0.4l-0.4-0.8c0.6-0.4,1.2-0.6,2-0.6c1.2,0,1.8,0.6,1.9,1.6l0,2.9H44z M44,381.5v-0.4
			h-1.1c-0.6,0-0.9,0.2-0.9,0.6c0,0.4,0.3,0.6,0.8,0.6C43.5,382.3,44,381.9,44,381.5z"/>
		<path class="st0" d="M49,382.8c-0.3,0.2-0.7,0.3-1.1,0.3c-0.7,0-1.3-0.4-1.3-1.3v-2.2h-0.6l0-0.8h0.6v-1.2h1.1v1.2h1.3v0.8h-1.3v2
			c0,0.4,0.2,0.6,0.5,0.6c0.2,0,0.4-0.1,0.6-0.2L49,382.8z"/>
		<path class="st0" d="M53.8,381.2h-3.3c0.1,0.6,0.6,1,1.3,1c0.5,0,0.9-0.2,1.2-0.5l0.6,0.6c-0.4,0.5-1.1,0.8-1.9,0.8
			c-1.4,0-2.3-0.9-2.3-2.3c0-1.4,0.9-2.3,2.3-2.3C53.3,378.5,53.9,379.6,53.8,381.2z M52.8,380.5c0-0.7-0.5-1.1-1.2-1.1
			c-0.6,0-1.1,0.4-1.2,1.1H52.8z"/>
		<path class="st0" d="M59.6,383.1v-0.5c-0.3,0.4-0.8,0.6-1.5,0.6c-1,0-1.6-0.6-1.6-1.4c0-0.8,0.6-1.3,1.7-1.4h1.3v-0.1
			c0-0.5-0.3-0.8-1-0.8c-0.4,0-0.9,0.1-1.3,0.4l-0.4-0.8c0.6-0.4,1.2-0.6,2-0.6c1.2,0,1.8,0.6,1.9,1.6l0,2.9H59.6z M59.5,381.5v-0.4
			h-1.1c-0.6,0-0.9,0.2-0.9,0.6c0,0.4,0.3,0.6,0.8,0.6C59,382.3,59.5,381.9,59.5,381.5z"/>
		<path class="st0" d="M63.8,379.5c-0.7,0-1.2,0.5-1.2,1.3c0,0.8,0.5,1.3,1.2,1.3c0.5,0,0.9-0.2,1.2-0.5l0.7,0.6
			c-0.4,0.6-1.1,0.9-2,0.9c-1.3,0-2.3-0.9-2.3-2.3c0-1.4,0.9-2.3,2.3-2.3c0.8,0,1.5,0.3,1.9,0.8L65,380
			C64.7,379.7,64.3,379.5,63.8,379.5z"/>
		<path class="st0" d="M68.4,379.5c-0.7,0-1.2,0.5-1.2,1.3c0,0.8,0.5,1.3,1.2,1.3c0.5,0,0.9-0.2,1.2-0.5l0.7,0.6
			c-0.4,0.6-1.1,0.9-2,0.9c-1.3,0-2.3-0.9-2.3-2.3c0-1.4,0.9-2.3,2.3-2.3c0.8,0,1.5,0.3,1.9,0.8l-0.7,0.6
			C69.3,379.7,68.9,379.5,68.4,379.5z"/>
		<path class="st0" d="M75.4,380.8c0,1.4-1,2.3-2.4,2.3c-1.4,0-2.4-0.9-2.4-2.3c0-1.4,1-2.3,2.4-2.3
			C74.4,378.5,75.4,379.4,75.4,380.8z M71.7,380.8c0,0.8,0.5,1.4,1.3,1.4c0.8,0,1.3-0.6,1.3-1.4s-0.5-1.4-1.3-1.4
			C72.3,379.5,71.7,380,71.7,380.8z"/>
		<path class="st0" d="M80.5,378.6v4.5h-1.1v-0.8c-0.3,0.6-0.9,0.9-1.6,0.9c-1,0-1.6-0.7-1.6-1.7v-2.8h1.1v2.5c0,0.6,0.4,1,1,1
			c0.7,0,1.1-0.6,1.1-1.3v-2.2H80.5z"/>
		<path class="st0" d="M86.2,380.3v2.8h-1.1v-2.5c0-0.6-0.4-1-1-1c-0.7,0-1.2,0.6-1.2,1.3v2.2h-1.1v-4.5H83v0.8
			c0.3-0.6,0.9-0.9,1.6-0.9C85.6,378.5,86.2,379.2,86.2,380.3z"/>
		<path class="st0" d="M90.1,382.8c-0.3,0.2-0.7,0.3-1.1,0.3c-0.7,0-1.3-0.4-1.3-1.3v-2.2H87l0-0.8h0.6v-1.2h1.1v1.2H90v0.8h-1.3v2
			c0,0.4,0.2,0.6,0.5,0.6c0.2,0,0.4-0.1,0.6-0.2L90.1,382.8z"/>
	</g>
</g>
<g id="Need_Help_">
	<g class="st4">
		<path class="st0" d="M177,377.2l3,4v-4h1.1v5.9h-1.1l-3-4v4H176v-5.9H177z"/>
		<path class="st0" d="M186.6,381.2h-3.3c0.1,0.6,0.6,1,1.3,1c0.5,0,0.9-0.2,1.2-0.5l0.6,0.6c-0.4,0.5-1.1,0.8-1.9,0.8
			c-1.4,0-2.3-0.9-2.3-2.3c0-1.4,0.9-2.3,2.3-2.3C186,378.5,186.7,379.6,186.6,381.2z M185.6,380.5c0-0.7-0.5-1.1-1.2-1.1
			c-0.6,0-1.1,0.4-1.2,1.1H185.6z"/>
		<path class="st0" d="M191.6,381.2h-3.3c0.1,0.6,0.6,1,1.3,1c0.5,0,0.9-0.2,1.2-0.5l0.6,0.6c-0.4,0.5-1.1,0.8-1.9,0.8
			c-1.4,0-2.3-0.9-2.3-2.3c0-1.4,0.9-2.3,2.3-2.3C191,378.5,191.7,379.6,191.6,381.2z M190.6,380.5c0-0.7-0.5-1.1-1.2-1.1
			c-0.6,0-1.1,0.4-1.2,1.1H190.6z"/>
		<path class="st0" d="M196.9,376.8v6.3h-1.1v-0.7c-0.3,0.5-0.8,0.8-1.5,0.8c-1.3,0-2.1-0.9-2.1-2.3c0-1.4,0.9-2.3,2.1-2.3
			c0.7,0,1.2,0.3,1.5,0.8v-2.5H196.9z M195.8,380.8c0-0.8-0.5-1.4-1.3-1.4c-0.8,0-1.3,0.6-1.3,1.4c0,0.8,0.5,1.4,1.3,1.4
			S195.8,381.6,195.8,380.8z"/>
		<path class="st0" d="M201.6,377.2v2.5h2.9v-2.5h1.1v5.9h-1.1v-2.4h-2.9v2.4h-1.1v-5.9H201.6z"/>
		<path class="st0" d="M211.1,381.2h-3.3c0.1,0.6,0.6,1,1.3,1c0.5,0,0.9-0.2,1.2-0.5l0.6,0.6c-0.4,0.5-1.1,0.8-1.9,0.8
			c-1.4,0-2.3-0.9-2.3-2.3c0-1.4,0.9-2.3,2.3-2.3C210.5,378.5,211.2,379.6,211.1,381.2z M210.1,380.5c0-0.7-0.5-1.1-1.2-1.1
			c-0.6,0-1.1,0.4-1.2,1.1H210.1z"/>
		<path class="st0" d="M213.2,376.8v6.3h-1.1v-6.3H213.2z"/>
		<path class="st0" d="M219.4,380.8c0,1.4-0.8,2.3-2.1,2.3c-0.7,0-1.2-0.3-1.5-0.8v2.4h-1.1v-6.1h1.1v0.7c0.3-0.5,0.8-0.8,1.5-0.8
			C218.5,378.5,219.4,379.5,219.4,380.8z M218.3,380.8c0-0.8-0.5-1.4-1.3-1.4c-0.8,0-1.3,0.6-1.3,1.4c0,0.8,0.5,1.4,1.3,1.4
			C217.7,382.2,218.3,381.6,218.3,380.8z"/>
		<path class="st0" d="M221.5,377.2c1,0,1.7,0.5,1.7,1.4c0,1.3-1.3,1.4-1.3,2.5H221c0-1.3,1.1-1.4,1.1-2.3c0-0.4-0.3-0.7-0.8-0.7
			c-0.5,0-0.8,0.3-0.8,0.8l-0.9,0C219.7,377.8,220.4,377.2,221.5,377.2z M222,382.5c0,0.4-0.2,0.6-0.6,0.6c-0.3,0-0.6-0.3-0.6-0.6
			s0.2-0.6,0.6-0.6C221.8,381.9,222,382.2,222,382.5z"/>
	</g>
</g>
<g id="Battery">
	<g id="Border" class="st6">
		<path id="Rectangle_1" class="st7" d="M217.5,25.5h10c0.9,0,1.6,0.7,1.6,1.6v3.6c0,0.9-0.7,1.6-1.6,1.6h-10
			c-0.9,0-1.6-0.7-1.6-1.6v-3.6C215.9,26.2,216.6,25.5,217.5,25.5z"/>
		<path id="Rectangle_2" class="st8" d="M217.5,25.8h10c0.7,0,1.3,0.6,1.3,1.3v3.6c0,0.7-0.6,1.3-1.3,1.3h-10
			c-0.7,0-1.3-0.6-1.3-1.3v-3.6C216.2,26.3,216.8,25.8,217.5,25.8z"/>
	</g>
	<path id="Cap" class="st9" d="M229.7,27.7v2.4c0.7-0.3,1-1,0.7-1.7C230.3,28,230,27.8,229.7,27.7"/>
	<path id="Capacity" class="st0" d="M217.9,26.7h9.2c0.4,0,0.8,0.4,0.8,0.8v2.8c0,0.4-0.4,0.8-0.8,0.8h-9.2c-0.4,0-0.8-0.4-0.8-0.8
		v-2.8C217.1,27,217.5,26.7,217.9,26.7z"/>
</g>
<path id="Wifi" class="st0" d="M208.3,32.1c-0.1,0-0.1,0-0.1-0.1l-1.2-1.2c-0.1-0.1-0.1-0.2,0-0.3c0,0,0,0,0,0l0,0
	c0.8-0.6,1.9-0.6,2.7,0c0,0,0.1,0.1,0.1,0.1c0,0.1,0,0.1-0.1,0.1l-1.2,1.2C208.4,32,208.3,32.1,208.3,32.1z M210.4,29.9
	c0,0-0.1,0-0.1-0.1c-1.1-1-2.8-1-4,0c-0.1,0.1-0.2,0.1-0.3,0l-0.7-0.7c-0.1-0.1-0.1-0.2,0-0.3l0,0c1.7-1.5,4.2-1.5,5.9,0
	c0,0,0.1,0.1,0.1,0.1c0,0.1,0,0.1-0.1,0.1l-0.7,0.7C210.5,29.9,210.4,29.9,210.4,29.9z M212,28.3c0,0-0.1,0-0.1-0.1
	c-2-1.9-5.2-1.9-7.2,0c0,0-0.1,0.1-0.1,0.1c0,0-0.1,0-0.1-0.1l-0.7-0.7c-0.1-0.1-0.1-0.2,0-0.3c0,0,0,0,0,0l0,0
	c2.5-2.4,6.5-2.4,9.1,0c0,0,0.1,0.1,0.1,0.1c0,0.1,0,0.1-0.1,0.1l-0.7,0.7C212.1,28.3,212,28.3,212,28.3L212,28.3z"/>
<path id="Cellular_Connection" class="st0" d="M200.1,32.1h-0.6c-0.3,0-0.6-0.3-0.6-0.6v-5.2c0-0.3,0.3-0.6,0.6-0.6h0.6
	c0.3,0,0.6,0.3,0.6,0.6v5.2C200.7,31.8,200.4,32.1,200.1,32.1z M197.2,32.1h-0.6c-0.3,0-0.6-0.3-0.6-0.6v-3.8c0-0.3,0.3-0.6,0.6-0.6
	h0.6c0.3,0,0.6,0.3,0.6,0.6v3.8C197.8,31.8,197.6,32.1,197.2,32.1z M194.4,32.1h-0.6c-0.3,0-0.6-0.3-0.6-0.6v-2.4
	c0-0.3,0.3-0.6,0.6-0.6h0.6c0.3,0,0.6,0.3,0.6,0.6v2.4C195,31.8,194.8,32.1,194.4,32.1z M191.6,32.1H191c-0.3,0-0.6-0.3-0.6-0.6
	v-1.2c0-0.3,0.3-0.6,0.6-0.6h0.6c0.3,0,0.6,0.3,0.6,0.6v1.2C192.2,31.8,192,32.1,191.6,32.1L191.6,32.1z"/>
<g id="Time_Style">
	<g id="_Time">
		<g class="st4">
			<path class="st0" d="M39.3,29.8c0,0.6-0.1,1.2-0.2,1.6c-0.1,0.5-0.3,0.8-0.6,1.1c-0.2,0.3-0.5,0.5-0.8,0.7
				c-0.3,0.1-0.7,0.2-1,0.2c-0.1,0-0.2,0-0.4,0c-0.1,0-0.2,0-0.3-0.1c-0.1,0-0.2,0-0.3-0.1c-0.1,0-0.2-0.1-0.2-0.1v-0.9
				c0.1,0,0.1,0.1,0.2,0.1c0.1,0,0.2,0.1,0.3,0.1c0.1,0,0.2,0.1,0.3,0.1c0.1,0,0.2,0,0.3,0c0.2,0,0.5,0,0.7-0.1
				c0.2-0.1,0.4-0.2,0.5-0.4c0.1-0.2,0.3-0.4,0.3-0.7s0.1-0.6,0.1-1h0c-0.1,0.1-0.1,0.2-0.2,0.3c-0.1,0.1-0.2,0.2-0.3,0.2
				c-0.1,0.1-0.2,0.1-0.4,0.2c-0.1,0-0.3,0.1-0.4,0.1c-0.3,0-0.5,0-0.7-0.1c-0.2-0.1-0.4-0.2-0.6-0.4s-0.3-0.4-0.4-0.6
				c-0.1-0.2-0.1-0.5-0.1-0.8c0-0.3,0.1-0.6,0.2-0.9c0.1-0.3,0.3-0.5,0.4-0.7c0.2-0.2,0.4-0.3,0.7-0.4c0.3-0.1,0.5-0.2,0.8-0.2
				c0.3,0,0.6,0.1,0.8,0.2c0.3,0.1,0.5,0.3,0.7,0.5c0.2,0.2,0.3,0.5,0.5,0.9C39.2,28.8,39.3,29.2,39.3,29.8z M38.2,29.1
				c0-0.2,0-0.4-0.1-0.6c-0.1-0.2-0.1-0.3-0.2-0.4c-0.1-0.1-0.2-0.2-0.3-0.3c-0.1-0.1-0.3-0.1-0.4-0.1c-0.1,0-0.3,0-0.4,0.1
				c-0.1,0.1-0.2,0.1-0.3,0.2c-0.1,0.1-0.2,0.2-0.2,0.4c-0.1,0.1-0.1,0.3-0.1,0.5c0,0.2,0,0.4,0.1,0.5c0.1,0.2,0.1,0.3,0.2,0.4
				c0.1,0.1,0.2,0.2,0.4,0.2c0.1,0.1,0.3,0.1,0.5,0.1c0.1,0,0.3,0,0.4-0.1c0.1-0.1,0.2-0.1,0.3-0.2c0.1-0.1,0.2-0.2,0.2-0.3
				C38.2,29.4,38.2,29.2,38.2,29.1z"/>
			<path class="st0" d="M40.8,29.9c-0.2,0-0.3-0.1-0.4-0.2c-0.1-0.1-0.2-0.3-0.2-0.4c0-0.2,0.1-0.3,0.2-0.4c0.1-0.1,0.3-0.2,0.4-0.2
				c0.2,0,0.3,0.1,0.5,0.2c0.1,0.1,0.2,0.3,0.2,0.4c0,0.2-0.1,0.3-0.2,0.4C41.1,29.8,41,29.9,40.8,29.9z M40.8,33.4
				c-0.2,0-0.3-0.1-0.4-0.2c-0.1-0.1-0.2-0.3-0.2-0.4c0-0.2,0.1-0.3,0.2-0.4c0.1-0.1,0.3-0.2,0.4-0.2c0.2,0,0.3,0.1,0.5,0.2
				c0.1,0.1,0.2,0.3,0.2,0.4c0,0.2-0.1,0.3-0.2,0.4C41.1,33.3,41,33.4,40.8,33.4z"/>
			<path class="st0" d="M46,27V31h0.9v0.8H46v1.4h-1v-1.4h-2.9V31c0.3-0.3,0.5-0.6,0.8-0.9c0.3-0.3,0.5-0.7,0.8-1s0.5-0.7,0.7-1.1
				s0.4-0.7,0.5-1H46z M45,31v-2.7c-0.3,0.6-0.6,1.1-0.9,1.5c-0.3,0.4-0.6,0.8-0.9,1.1H45z"/>
			<path class="st0" d="M49.8,26.8v6.5h-1v-5.2c-0.2,0.1-0.4,0.2-0.6,0.3s-0.5,0.2-0.7,0.2v-0.9c0.2-0.1,0.3-0.1,0.5-0.2
				s0.3-0.1,0.5-0.2c0.2-0.1,0.3-0.2,0.5-0.3c0.2-0.1,0.3-0.2,0.5-0.3H49.8z"/>
		</g>
	</g>
</g>
<path id="Path_210" class="st10" d="M43,251.4h165.4c9.1,0,16.5,7.4,16.5,16.5s-7.4,16.5-16.5,16.5H43c-9.1,0-16.5-7.4-16.5-16.5
	S33.9,251.4,43,251.4z"/>
<g id="Password">
	<g class="st4">
		<path class="st3" d="M81,266.8c0,1.7-1.1,2.7-3,2.7h-1.7v2.3H75v-7.6h3C79.9,264.2,81,265.2,81,266.8z M79.8,266.9
			c0-1-0.7-1.5-1.8-1.5h-1.7v3h1.7C79.1,268.4,79.8,267.9,79.8,266.9z"/>
		<path class="st3" d="M85.6,271.8v-0.7c-0.4,0.5-1.1,0.8-1.9,0.8c-1.2,0-2-0.8-2-1.8c0-1,0.8-1.7,2.2-1.7h1.7v-0.2
			c0-0.7-0.5-1.2-1.4-1.2c-0.6,0-1.1,0.2-1.7,0.6l-0.5-0.9c0.8-0.5,1.4-0.7,2.5-0.7c1.5,0,2.3,0.8,2.3,2l0,3.8H85.6z M85.6,269.8
			v-0.5h-1.6c-0.8,0-1.2,0.2-1.2,0.8c0,0.5,0.4,0.9,1.1,0.9C84.9,270.9,85.5,270.4,85.6,269.8z"/>
		<path class="st3" d="M90.1,267c-0.5,0-0.8,0.2-0.8,0.6c0,1.1,3.1,0.5,3.1,2.6c0,1.2-1,1.7-2.2,1.7c-0.8,0-1.7-0.3-2.3-0.8l0.4-0.9
			c0.5,0.4,1.3,0.7,1.9,0.7c0.5,0,0.9-0.2,0.9-0.6c0-1.2-3-0.5-3-2.6c0-1.2,1-1.7,2.1-1.7c0.7,0,1.5,0.2,2,0.6l-0.5,0.9
			C91.3,267.2,90.6,267,90.1,267z"/>
		<path class="st3" d="M95.2,267c-0.5,0-0.8,0.2-0.8,0.6c0,1.1,3.1,0.5,3.1,2.6c0,1.2-1,1.7-2.2,1.7c-0.8,0-1.7-0.3-2.3-0.8l0.4-0.9
			c0.5,0.4,1.3,0.7,1.9,0.7c0.5,0,0.9-0.2,0.9-0.6c0-1.2-3-0.5-3-2.6c0-1.2,1-1.7,2.1-1.7c0.7,0,1.5,0.2,2,0.6l-0.5,0.9
			C96.4,267.2,95.7,267,95.2,267z"/>
		<path class="st3" d="M99,266.1l1.5,4.5l1.4-4.5h1.3l1.5,4.5l1.5-4.5h1.3l-2.1,5.8H104l-1.5-4.3l-1.5,4.3h-1.3l-2.1-5.8H99z"/>
		<path class="st3" d="M113.6,268.9c0,1.7-1.2,2.9-3,2.9c-1.8,0-3-1.2-3-2.9c0-1.7,1.2-2.9,3-2.9C112.3,266,113.6,267.2,113.6,268.9
			z M108.8,269c0,1.1,0.7,1.9,1.8,1.9c1,0,1.8-0.8,1.8-1.9c0-1.1-0.7-1.9-1.8-1.9C109.5,267.1,108.8,267.8,108.8,269z"/>
		<path class="st3" d="M118.1,266v1.2c-1.2-0.1-1.9,0.6-2,1.6v3h-1.2v-5.8h1.2v1.1C116.5,266.4,117.2,266,118.1,266z"/>
		<path class="st3" d="M124.6,263.8v8h-1.2v-1c-0.4,0.7-1.1,1-2,1c-1.7,0-2.8-1.2-2.8-3c0-1.7,1.1-2.9,2.7-2.9c0.9,0,1.6,0.4,2,1
			v-3.3H124.6z M123.4,269c0-1.1-0.7-1.9-1.8-1.9c-1,0-1.8,0.8-1.8,1.9c0,1.1,0.7,1.9,1.8,1.9C122.6,270.8,123.4,270.1,123.4,269z"
			/>
	</g>
</g>
<path id="Path_28" class="st3" d="M58.9,267.4c-0.2-0.2-0.4-0.3-0.7-0.3h-0.3v-1.8c0-1.1-0.4-2.2-1.3-3c-1.7-1.7-4.3-1.7-6,0l0,0
	c-0.8,0.8-1.3,1.9-1.3,3v1.8H49c-0.5,0-0.9,0.4-0.9,0.9c0,0,0,0,0,0v5.5c0,0.5,0.4,0.9,0.9,0.9c0,0,0,0,0,0h9.2
	c0.5,0,0.9-0.4,0.9-0.9l0,0V268C59.1,267.8,59,267.6,58.9,267.4z M56.1,267.1h-4.9v-1.8c0-0.7,0.3-1.3,0.7-1.7c1-1,2.5-1,3.5,0l0,0
	c0.5,0.5,0.7,1.1,0.7,1.7V267.1z"/>
<path id="Path_209" class="st10" d="M43,205.1h165.4c9.1,0.1,16.5,7.5,16.4,16.7c-0.1,9-7.4,16.3-16.4,16.4H43
	c-9.1,0.1-16.6-7.3-16.7-16.4c-0.1-9.1,7.3-16.6,16.4-16.7C42.8,205.1,42.9,205.1,43,205.1z"/>
<g class="st4">
	<path class="st3" d="M78.1,224.4c1.2,0,2-0.8,2-2v-4.4h1.3v4.4c0,2-1.2,3.2-3.3,3.2s-3.3-1.2-3.3-3.2v-4.4h1.3v4.4
		C76.1,223.7,76.9,224.4,78.1,224.4z"/>
	<path class="st3" d="M84.8,220.7c-0.5,0-0.8,0.2-0.8,0.6c0,1.1,3.1,0.5,3.1,2.6c0,1.2-1,1.7-2.2,1.7c-0.8,0-1.7-0.3-2.3-0.8
		l0.4-0.9c0.5,0.4,1.3,0.7,1.9,0.7c0.5,0,0.9-0.2,0.9-0.6c0-1.2-3-0.5-3-2.6c0-1.2,1-1.7,2.1-1.7c0.7,0,1.5,0.2,2,0.6l-0.5,0.9
		C85.9,220.9,85.3,220.7,84.8,220.7z"/>
	<path class="st3" d="M93.3,223.1H89c0.2,0.9,0.9,1.4,1.8,1.4c0.6,0,1.2-0.2,1.6-0.7l0.7,0.7c-0.6,0.6-1.4,1-2.4,1
		c-1.8,0-2.9-1.2-2.9-2.9c0-1.7,1.2-2.9,2.9-2.9C92.6,219.7,93.5,221,93.3,223.1z M92.2,222.2c0-0.9-0.7-1.5-1.6-1.5
		c-0.9,0-1.6,0.6-1.7,1.5H92.2z"/>
	<path class="st3" d="M97.8,219.7v1.2c-1.2-0.1-1.9,0.6-2,1.6v3h-1.2v-5.8h1.2v1.1C96.2,220.1,96.9,219.7,97.8,219.7z"/>
	<path class="st3" d="M104.4,221.9v3.6h-1.2v-3.2c0-0.9-0.5-1.4-1.4-1.4c-1,0-1.5,0.7-1.6,1.6v3.1h-1.2v-5.8h1.2v1.1
		c0.4-0.8,1.1-1.1,2.1-1.1C103.6,219.7,104.4,220.6,104.4,221.9z"/>
	<path class="st3" d="M109.5,225.5v-0.7c-0.4,0.5-1.1,0.8-1.9,0.8c-1.2,0-2-0.8-2-1.8c0-1,0.8-1.7,2.2-1.7h1.7v-0.2
		c0-0.7-0.5-1.2-1.4-1.2c-0.6,0-1.1,0.2-1.7,0.6l-0.5-0.9c0.8-0.5,1.4-0.7,2.5-0.7c1.5,0,2.3,0.8,2.3,2l0,3.8H109.5z M109.5,223.5
		V223h-1.6c-0.8,0-1.2,0.2-1.2,0.8c0,0.5,0.4,0.9,1.1,0.9C108.7,224.6,109.4,224.1,109.5,223.5z"/>
	<path class="st3" d="M122,221.9v3.6h-1.2v-3.2c0-0.9-0.5-1.4-1.4-1.4c-1,0-1.6,0.8-1.6,1.8v2.8h-1.2v-3.2c0-0.9-0.5-1.4-1.4-1.4
		c-1,0-1.6,0.8-1.6,1.8v2.8h-1.2v-5.8h1.2v1.1c0.4-0.8,1.1-1.2,2.1-1.2c1,0,1.7,0.5,2,1.4c0.4-1,1.1-1.4,2.2-1.4
		C121.2,219.7,122,220.6,122,221.9z"/>
	<path class="st3" d="M128.7,223.1h-4.3c0.2,0.9,0.9,1.4,1.8,1.4c0.6,0,1.2-0.2,1.6-0.7l0.7,0.7c-0.6,0.6-1.4,1-2.4,1
		c-1.8,0-2.9-1.2-2.9-2.9c0-1.7,1.2-2.9,2.9-2.9C128.1,219.7,128.9,221,128.7,223.1z M127.7,222.2c0-0.9-0.7-1.5-1.6-1.5
		c-0.9,0-1.6,0.6-1.7,1.5H127.7z"/>
</g>
<g id="user-shape">
	<g id="Group_96">
		<path id="Path_29" class="st3" d="M52.7,221.6c1.8,0,3.2-1.4,3.2-3.2c0-0.8-0.3-1.6-0.9-2.2c-1.2-1.2-3.2-1.2-4.5,0l0,0
			c-1.2,1.2-1.2,3.2,0,4.5C51.1,221.3,51.9,221.6,52.7,221.6L52.7,221.6z"/>
		<path id="Path_30" class="st3" d="M58.5,225c0-0.3-0.1-0.6-0.1-0.9c-0.1-0.3-0.1-0.6-0.2-0.9c-0.1-0.3-0.2-0.6-0.4-0.8
			c-0.1-0.2-0.3-0.5-0.5-0.7c-0.2-0.2-0.4-0.3-0.7-0.4c-0.3-0.1-0.6-0.2-0.9-0.2c-0.1,0-0.2,0.1-0.3,0.2c-0.2,0.1-0.4,0.3-0.6,0.4
			c-0.3,0.2-0.6,0.3-0.9,0.4c-0.7,0.2-1.5,0.2-2.2,0c-0.3-0.1-0.6-0.2-0.9-0.4c-0.2-0.1-0.4-0.3-0.6-0.4c-0.1-0.1-0.2-0.1-0.3-0.2
			c-0.3,0-0.6,0.1-0.9,0.2c-0.3,0.1-0.5,0.3-0.7,0.4c-0.2,0.2-0.4,0.4-0.5,0.7c-0.1,0.3-0.3,0.5-0.4,0.8c-0.1,0.3-0.2,0.6-0.2,0.9
			c-0.1,0.3-0.1,0.6-0.1,0.9c0,0.3,0,0.6,0,0.9c0,0.6,0.2,1.2,0.6,1.6c0.4,0.4,1,0.6,1.6,0.6h7.2c0.6,0,1.2-0.2,1.6-0.6
			c0.4-0.4,0.6-1,0.6-1.6C58.5,225.5,58.5,225.3,58.5,225z"/>
	</g>
</g>
<g>
	<path class="st0" d="M163.2,103.6l-34.6,34.5c-1.9,1.9-5.2,1.9-7.2,0c-1-1-1.5-2.3-1.5-3.5s0.5-2.6,1.5-3.5L158.5,94
		c-7-10.5-18.9-17.5-32.5-17.5c-21.6,0-39,17.5-39,39c0,4.2,0.7,8.2,1.9,11.9l34.6-34.6c1.9-1.9,5.2-1.9,7.2,0c1,1,1.5,2.3,1.5,3.5
		c0,1.3-0.5,2.6-1.5,3.5l-37.1,37.1c7,10.5,18.9,17.5,32.5,17.5c21.6,0,39-17.5,39-39C165,111.3,164.4,107.4,163.2,103.6z
		 M106.9,139.7c-1.3,0-2.6-0.5-3.5-1.5c-1.9-1.9-1.9-5.2,0-7.2l38.2-38.2c1.9-1.9,5.2-1.9,7.2,0c0.9,0.9,1.5,2.2,1.5,3.5
		c0,1.3-0.5,2.6-1.5,3.5l-38.2,38.2C109.5,139.1,108.3,139.7,106.9,139.7z"/>
</g>
</svg>
