<?xml version="1.0" encoding="utf-8"?>
<!-- Generator: Adobe Illustrator 23.0.1, SVG Export Plug-In . SVG Version: 6.00 Build 0)  -->
<svg version="1.1" id="Layer_1" xmlns="http://www.w3.org/2000/svg" xmlns:xlink="http://www.w3.org/1999/xlink" x="0px" y="0px"
	 viewBox="0 0 252 506.3" style="enable-background:new 0 0 252 506.3;" xml:space="preserve">
<style type="text/css">
	.st0{fill:#FFFFFF;}
	.st1{fill:#DCDCE9;}
	.st2{fill:url(#Intersection_4_1_);}
	.st3{fill:#EFF2FB;}
	.st4{font-family:'Montserrat-Regular';}
	.st5{font-size:8.419px;}
	.st6{fill:#FB9400;}
	.st7{font-family:'Montserrat-SemiBold';}
	.st8{font-size:10.825px;}
	.st9{font-family:'Montserrat-Medium';}
	.st10{opacity:0.35;}
	.st11{fill:none;}
	.st12{fill:none;stroke:#FFFFFF;stroke-width:0.191;stroke-miterlimit:10;}
	.st13{opacity:0.4;fill:#FFFFFF;enable-background:new    ;}
	.st14{font-family:'SegoeUI-Semibold';}
	.st15{font-size:9.02px;}
	.st16{opacity:0.2;fill:#FFFFFF;enable-background:new    ;}
</style>
<path id="body" class="st0" d="M37.6,506.3c-19.5,0-35.2-15.8-35.2-35.2c0,0,0,0,0,0V186.8c-1.3,0-2.3-1.1-2.3-2.3l0,0v-31.7
	c0-1.3,1.1-2.3,2.3-2.3c0,0,0,0,0,0V141c-1.3,0-2.3-1.1-2.3-2.3v-31.7c0-1.3,1.1-2.3,2.3-2.4c0,0,0,0,0,0l0,0V86.9
	c-1.3,0-2.3-1-2.3-2.3V70.5c0-1.3,1.1-2.3,2.3-2.4c0,0,0,0,0,0l0,0V35.2C2.3,15.8,18.1,0,37.6,0h176.8c19.5,0,35.2,15.8,35.2,35.2v0
	v81.7c1.3,0,2.3,1.1,2.3,2.3l0,0v52.9c0,1.3-1.1,2.4-2.3,2.4l0,0v296.6c0,19.5-15.8,35.2-35.2,35.2c0,0,0,0,0,0H37.6z"/>
<path id="camera" class="st1" d="M149.8,20c0-1.9,1.6-3.5,3.6-3.5c1.9,0,3.4,1.6,3.5,3.5l0,0c0,1.9-1.6,3.5-3.5,3.5l0,0
	C151.4,23.5,149.8,21.9,149.8,20z M112.2,21.7c-1,0-1.8-0.8-1.8-1.8l0,0c0-1,0.8-1.8,1.8-1.8h27.6c1,0,1.8,0.8,1.8,1.8
	c0,1-0.8,1.8-1.8,1.8L112.2,21.7z"/>
<linearGradient id="Intersection_4_1_" gradientUnits="userSpaceOnUse" x1="-828.2117" y1="793.4011" x2="-829.2297" y2="792.3861" gradientTransform="matrix(220.0611 0 0 -476.731 182493.7656 378253.125)">
	<stop  offset="0" style="stop-color:#A52EFF"/>
	<stop  offset="0.498" style="stop-color:#6747F8"/>
	<stop  offset="0.647" style="stop-color:#6049F7"/>
	<stop  offset="0.863" style="stop-color:#4C51F4"/>
	<stop  offset="1" style="stop-color:#3D58F3"/>
</linearGradient>
<path id="Intersection_4" class="st2" d="M38.5,491.4c-2.3,0-4.6-0.3-6.8-1c-0.5-0.2-1-0.4-1.5-0.6c-8.7-3.7-14.4-12.2-14.3-21.6
	v-430c0-13,10.5-23.5,23.5-23.5c0,0,0,0,0,0h22.3c1.6,0,2.9,1.3,2.9,2.9v1.8c0,7.1,5.8,12.9,12.9,12.9c0,0,0,0,0,0h98.1
	c6.5,0,11.7-5.2,11.7-11.7c0,0,0,0,0,0v-2.9c0-1.6,1.3-2.9,2.9-2.9h22.3c10.4,0,19.6,6.9,22.5,16.8c0.5,1.9,0.7,3.8,0.7,5.8v431.3
	c0,12.6-10.2,22.9-22.9,22.9l0,0H38.5z"/>
<g id="Group_429">
	<g id="Rectangle_69">
		<path id="Path_1" class="st3" d="M43.3,307.9h-7.2c-1.3,0-2.4-1.1-2.4-2.4c0,0,0,0,0,0v-7.2c0-1.3,1.1-2.4,2.4-2.4h7.2
			c1.3,0,2.4,1.1,2.4,2.4v7.2C45.7,306.8,44.6,307.9,43.3,307.9z M36.1,297c-0.7,0-1.2,0.6-1.2,1.2v7.2c0,0.7,0.6,1.2,1.2,1.2h7.2
			c0.7,0,1.2-0.6,1.2-1.2v-7.2c0-0.7-0.6-1.2-1.2-1.2L36.1,297z"/>
	</g>
	<g id="Keep_me_signed">
		<text transform="matrix(1 0 0 1 51.718 304.892)" class="st3 st4 st5">Keep me signed</text>
	</g>
</g>
<g id="Group_1">
	<path id="Rectangle_70-3" class="st6" d="M43,322.3h165.4c9.1,0,16.5,7.4,16.5,16.5l0,0c0,9.1-7.4,16.5-16.5,16.5c0,0,0,0,0,0H43
		c-9.1,0-16.5-7.4-16.5-16.5v0l0,0C26.5,329.7,33.9,322.3,43,322.3C43,322.3,43,322.3,43,322.3z"/>
</g>
<g id="Get_to_App">
	<text transform="matrix(1 0 0 1 96.219 342.778)" class="st0 st7 st8">Get to App</text>
</g>
<g id="Create_account">
	<text transform="matrix(1 0 0 1 26.46 383.07)" class="st0 st9 st5">Create account</text>
</g>
<g id="Need_Help_">
	<text transform="matrix(1 0 0 1 175.255 383.07)" class="st0 st9 st5">Need Help?</text>
</g>
<g id="Status_Bar">
	<g id="Battery">
		<g id="Border" class="st10">
			<path id="Rectangle_1" class="st11" d="M217.5,25.5h10c0.9,0,1.6,0.7,1.6,1.6v3.6c0,0.9-0.7,1.6-1.6,1.6h-10
				c-0.9,0-1.6-0.7-1.6-1.6v-3.6C215.9,26.2,216.6,25.5,217.5,25.5z"/>
			<path id="Rectangle_2" class="st12" d="M217.5,25.8h10c0.7,0,1.3,0.6,1.3,1.3v3.6c0,0.7-0.6,1.3-1.3,1.3h-10
				c-0.7,0-1.3-0.6-1.3-1.3v-3.6C216.2,26.3,216.8,25.8,217.5,25.8z"/>
		</g>
		<path id="Cap" class="st13" d="M229.7,27.7v2.4c0.7-0.3,1-1,0.7-1.7C230.3,28,230,27.8,229.7,27.7"/>
		<path id="Capacity" class="st0" d="M217.9,26.7h9.2c0.4,0,0.8,0.4,0.8,0.8v2.8c0,0.4-0.4,0.8-0.8,0.8h-9.2c-0.4,0-0.8-0.4-0.8-0.8
			v-2.8C217.1,27,217.5,26.7,217.9,26.7z"/>
	</g>
	<path id="Wifi" class="st0" d="M208.3,32.1c-0.1,0-0.1,0-0.1-0.1l-1.2-1.2c-0.1-0.1-0.1-0.2,0-0.3c0,0,0,0,0,0l0,0
		c0.8-0.6,1.9-0.6,2.7,0c0,0,0.1,0.1,0.1,0.1c0,0.1,0,0.1-0.1,0.1l-1.2,1.2C208.4,32,208.3,32.1,208.3,32.1z M210.4,29.9
		c0,0-0.1,0-0.1-0.1c-1.1-1-2.8-1-4,0c-0.1,0.1-0.2,0.1-0.3,0l-0.7-0.7c-0.1-0.1-0.1-0.2,0-0.3l0,0c1.7-1.5,4.2-1.5,5.9,0
		c0,0,0.1,0.1,0.1,0.1c0,0.1,0,0.1-0.1,0.1l-0.7,0.7C210.5,29.9,210.4,29.9,210.4,29.9z M212,28.3c0,0-0.1,0-0.1-0.1
		c-2-1.9-5.2-1.9-7.2,0c0,0-0.1,0.1-0.1,0.1c0,0-0.1,0-0.1-0.1l-0.7-0.7c-0.1-0.1-0.1-0.2,0-0.3c0,0,0,0,0,0l0,0
		c2.5-2.4,6.5-2.4,9.1,0c0,0,0.1,0.1,0.1,0.1c0,0.1,0,0.1-0.1,0.1l-0.7,0.7C212.1,28.3,212,28.3,212,28.3L212,28.3z"/>
	<path id="Cellular_Connection" class="st0" d="M200.1,32.1h-0.6c-0.3,0-0.6-0.3-0.6-0.6v-5.2c0-0.3,0.3-0.6,0.6-0.6h0.6
		c0.3,0,0.6,0.3,0.6,0.6v5.2C200.7,31.8,200.4,32.1,200.1,32.1z M197.2,32.1h-0.6c-0.3,0-0.6-0.3-0.6-0.6v-3.8
		c0-0.3,0.3-0.6,0.6-0.6h0.6c0.3,0,0.6,0.3,0.6,0.6v3.8C197.8,31.8,197.6,32.1,197.2,32.1z M194.4,32.1h-0.6c-0.3,0-0.6-0.3-0.6-0.6
		v-2.4c0-0.3,0.3-0.6,0.6-0.6h0.6c0.3,0,0.6,0.3,0.6,0.6v2.4C195,31.8,194.8,32.1,194.4,32.1z M191.6,32.1H191
		c-0.3,0-0.6-0.3-0.6-0.6v-1.2c0-0.3,0.3-0.6,0.6-0.6h0.6c0.3,0,0.6,0.3,0.6,0.6v1.2C192.2,31.8,192,32.1,191.6,32.1L191.6,32.1z"/>
	<g id="Time_Style">
		<g id="_Time">
			<text transform="matrix(1 0 0 1 34.683 33.274)" class="st0 st14 st15">9:41</text>
		</g>
	</g>
</g>
<g id="Group_431">
	<path id="Path_210" class="st16" d="M43,251.4h165.4c9.1,0,16.5,7.4,16.5,16.5s-7.4,16.5-16.5,16.5H43c-9.1,0-16.5-7.4-16.5-16.5
		S33.9,251.4,43,251.4z"/>
	<g id="Password">
		<text transform="matrix(1 0 0 1 73.968 271.818)" class="st3 st4 st8">Password</text>
	</g>
	<path id="Path_28" class="st3" d="M58.9,267.4c-0.2-0.2-0.4-0.3-0.7-0.3h-0.3v-1.8c0-1.1-0.4-2.2-1.3-3c-1.7-1.7-4.3-1.7-6,0l0,0
		c-0.8,0.8-1.3,1.9-1.3,3v1.8H49c-0.5,0-0.9,0.4-0.9,0.9c0,0,0,0,0,0v5.5c0,0.5,0.4,0.9,0.9,0.9c0,0,0,0,0,0h9.2
		c0.5,0,0.9-0.4,0.9-0.9l0,0V268C59.1,267.8,59,267.6,58.9,267.4z M56.1,267.1h-4.9v-1.8c0-0.7,0.3-1.3,0.7-1.7c1-1,2.5-1,3.5,0l0,0
		c0.5,0.5,0.7,1.1,0.7,1.7V267.1z"/>
</g>
<g id="Group_432">
	<path id="Path_209" class="st16" d="M43,205.1h165.4c9.1,0.1,16.5,7.5,16.4,16.7c-0.1,9-7.4,16.3-16.4,16.4H43
		c-9.1,0.1-16.6-7.3-16.7-16.4c-0.1-9.1,7.3-16.6,16.4-16.7C42.8,205.1,42.9,205.1,43,205.1z"/>
	<g id="Username">
		<text transform="matrix(1 0 0 1 73.968 225.511)" class="st3 st4 st8">Username</text>
	</g>
	<g id="user-shape">
		<g id="Group_96">
			<path id="Path_29" class="st3" d="M52.7,221.6c1.8,0,3.2-1.4,3.2-3.2c0-0.8-0.3-1.6-0.9-2.2c-1.2-1.2-3.2-1.2-4.5,0l0,0
				c-1.2,1.2-1.2,3.2,0,4.5C51.1,221.3,51.9,221.6,52.7,221.6L52.7,221.6z"/>
			<path id="Path_30" class="st3" d="M58.5,225c0-0.3-0.1-0.6-0.1-0.9c-0.1-0.3-0.1-0.6-0.2-0.9c-0.1-0.3-0.2-0.6-0.4-0.8
				c-0.1-0.2-0.3-0.5-0.5-0.7c-0.2-0.2-0.4-0.3-0.7-0.4c-0.3-0.1-0.6-0.2-0.9-0.2c-0.1,0-0.2,0.1-0.3,0.2c-0.2,0.1-0.4,0.3-0.6,0.4
				c-0.3,0.2-0.6,0.3-0.9,0.4c-0.7,0.2-1.5,0.2-2.2,0c-0.3-0.1-0.6-0.2-0.9-0.4c-0.2-0.1-0.4-0.3-0.6-0.4c-0.1-0.1-0.2-0.1-0.3-0.2
				c-0.3,0-0.6,0.1-0.9,0.2c-0.3,0.1-0.5,0.3-0.7,0.4c-0.2,0.2-0.4,0.4-0.5,0.7c-0.1,0.3-0.3,0.5-0.4,0.8c-0.1,0.3-0.2,0.6-0.2,0.9
				c-0.1,0.3-0.1,0.6-0.1,0.9c0,0.3,0,0.6,0,0.9c0,0.6,0.2,1.2,0.6,1.6c0.4,0.4,1,0.6,1.6,0.6h7.2c0.6,0,1.2-0.2,1.6-0.6
				c0.4-0.4,0.6-1,0.6-1.6C58.5,225.5,58.5,225.3,58.5,225z"/>
		</g>
	</g>
</g>
<g>
	<path class="st0" d="M163.2,103.6l-34.6,34.5c-1.9,1.9-5.2,1.9-7.2,0c-1-1-1.5-2.3-1.5-3.5s0.5-2.6,1.5-3.5L158.5,94
		c-7-10.5-18.9-17.5-32.5-17.5c-21.6,0-39,17.5-39,39c0,4.2,0.7,8.2,1.9,11.9l34.6-34.6c1.9-1.9,5.2-1.9,7.2,0c1,1,1.5,2.3,1.5,3.5
		c0,1.3-0.5,2.6-1.5,3.5l-37.1,37.1c7,10.5,18.9,17.5,32.5,17.5c21.6,0,39-17.5,39-39C165,111.3,164.4,107.4,163.2,103.6z
		 M106.9,139.7c-1.3,0-2.6-0.5-3.5-1.5c-1.9-1.9-1.9-5.2,0-7.2l38.2-38.2c1.9-1.9,5.2-1.9,7.2,0c0.9,0.9,1.5,2.2,1.5,3.5
		c0,1.3-0.5,2.6-1.5,3.5l-38.2,38.2C109.5,139.1,108.3,139.7,106.9,139.7z"/>
</g>
</svg>
