<?xml version="1.0" encoding="utf-8"?>
<!-- Generator: Adobe Illustrator 23.0.1, SVG Export Plug-In . SVG Version: 6.00 Build 0)  -->
<svg version="1.1" xmlns="http://www.w3.org/2000/svg" xmlns:xlink="http://www.w3.org/1999/xlink" x="0px" y="0px"
	 viewBox="0 0 634 391" style="enable-background:new 0 0 634 391;" xml:space="preserve">
<style type="text/css">
	.st0{fill:url(#SVGID_1_);}
	.st1{opacity:2.000000e-02;clip-path:url(#SVGID_3_);}
	.st2{opacity:0.5;fill-rule:evenodd;clip-rule:evenodd;fill:#FFFFFF;}
	.st3{clip-path:url(#SVGID_3_);}
	.st4{opacity:0.25;}
	.st5{opacity:0.1;fill-rule:evenodd;clip-rule:evenodd;fill:#FFFFFF;}
	.st6{opacity:0.5;}
	.st7{filter:url(#Adobe_OpacityMaskFilter);}
	.st8{mask:url(#SVGID_4_);}
	.st9{opacity:0.3;}
	.st10{filter:url(#Adobe_OpacityMaskFilter_1_);}
	.st11{mask:url(#SVGID_5_);}
	.st12{fill:url(#SVGID_6_);}
	.st13{fill:none;stroke:#5C00CC;stroke-width:1.9013;stroke-linecap:round;stroke-miterlimit:10;}
	.st14{fill:none;stroke:#CF06F2;stroke-width:1.9013;stroke-linecap:round;stroke-miterlimit:10;}
	.st15{fill:none;stroke:#CF06F2;stroke-width:1.4259;stroke-linecap:round;stroke-miterlimit:10;}
	.st16{fill:none;stroke:#5C00CC;stroke-width:1.4259;stroke-linecap:round;stroke-miterlimit:10;}
	.st17{fill:none;stroke:#5C00CC;stroke-width:3.3973;stroke-linecap:round;stroke-miterlimit:10;}
	.st18{fill:none;}
	.st19{opacity:0.5;fill:url(#SVGID_7_);}
	.st20{opacity:0.5;fill:url(#SVGID_8_);}
	.st21{fill:none;stroke:#5C00CC;stroke-width:1.4138;stroke-linecap:round;stroke-miterlimit:10;}
	.st22{fill:url(#SVGID_9_);}
	.st23{opacity:0.5;fill:url(#SVGID_10_);}
	.st24{fill:url(#SVGID_11_);}
</style>
<g id="BACKGROUND">
	<radialGradient id="SVGID_1_" cx="-60.3692" cy="-47.8161" r="902.3163" gradientUnits="userSpaceOnUse">
		<stop  offset="0" style="stop-color:#390080"/>
		<stop  offset="1" style="stop-color:#04001F"/>
	</radialGradient>
	<rect x="-60" y="-45.9" class="st0" width="750" height="500"/>
	<g>
		<defs>
			<rect id="SVGID_2_" x="-60" y="-45.9" width="750" height="500"/>
		</defs>
		<clipPath id="SVGID_3_">
			<use xlink:href="#SVGID_2_"  style="overflow:visible;"/>
		</clipPath>
		<g class="st1">
			<path class="st2" d="M6-5.6c-4.4,3-9,5-14.4,3.5c-2.2-0.6-4.2-1.7-6.8-2.8c2.6,3.8,3.7,7.6,3.2,11.7c-0.6,4.2-2.6,7.6-6,10.2
				c-5.3,4-12.6,4.1-18,0.2c-6.3-4.5-7.6-10.8-4.3-20.9c-5.7,3.1-11.3,3.3-17.4,0c2,4.2,2.9,8,1.9,12.1c-1,4-3.2,7.2-6.7,9.4
				c-5.5,3.6-12.8,3.2-18-0.9c-6-4.8-7-11.1-3.5-20.9c-5.8,3.4-11.5,3.8-17.8,0.3c3.8,7.5,2.5,14-2.6,19.8l0.1-0.1
				c-3.8,2.7-7.9,4.6-12.8,3.9c-10.5-1.5-16.4-12.3-12-22c0.3-0.7,0.7-1.4,1.2-2.7c-6.2,3.9-12,4-18.2,0.7c0.7,2.4,1.4,4.4,1.8,6.4
				c0.9,4.8-1.1,8.8-3.7,12.6l0.1-0.1c-3.7,2.9-7.5,5.2-12.5,4.8c-0.6-0.1-1.3-0.1-1.9-0.2c-4.8-0.9-5.4-1.5-4.3-6.2
				c1.7-7.5,3.7-15,5.8-22.4c0.2-0.7,1.6-1.6,2.3-1.5c2.5,0.4,4.9,1.2,7.5,1.8c-3.1-5.4-3.2-10.9-0.2-16.7c-1.5,0.5-2.7,0.9-4.4,1.5
				c25.2-59.7,67-102,126.1-128.2c0.1,1.5,0.2,2.5,0.2,3.6c0,1.1-0.2,2.2-0.3,3.3c2.7,0.1,5.1,0.2,7.5,0.3c0-2.6,0-5.3,0-8.1
				c-1.4,0.1-2.9,0.2-4.4,0.3c19.5-8.2,39.8-13.5,61-15.8c-0.4,1.6-0.7,3.1-1.2,4.8c5-1.8,9.6-1.4,14.2,0.8
				c-0.6-2.3-1.2-4.4-1.9-7.1c10.8,0.1,21,0.1,32.2,0.2c-1.5,3.6-2.7,6.4-3.6,8.6c2.6-0.8,5.6-2.1,8.7-2.6c4.5-0.8,8.1,1.6,11.7,3.8
				c0.2,0.3,0.5,0.6,0.7,0.9c3.3,4.6,5,9.6,3,15.3c-3.3,9.4-13.5,13.2-22.2,8.3c-0.5-0.3-0.9-0.5-1.9-1.1c4.3,7.9,4.2,15-2.1,21.1
				c-5.4,5.2-11.8,5.3-19,2c3,6,3.3,11.6,0,17.4c1.2-0.5,1.9-0.8,2.7-1.1c5.3-1.9,10.3-1.2,14.9,2.1c0.7,0.5,1.5,1,2.2,1.5L73-93.8
				c1.3,3.1,3.3,6,3.7,9.2c1.5,11.8-10.5,20.4-21.4,15.6c-0.9-0.4-1.8-0.9-3.1-1.5c3.1,5,3.9,9.9,1.9,14.9
				c-3.8,9.9-15.8,13-24.2,6.5c-0.6-0.4-1.2-0.8-1.8-1.3c-3.3-4.6-5.1-9.5-3.4-15.2c0.4-1.2,0.9-2.4,1.5-4.1
				c-5.2,3.3-10.3,3.2-16,1.3c2.1,5.6,1.8,10.5-1.1,15.9c4.3-2.1,8.3-2.7,12.2-1.4c2.4,0.8,4.5,2.2,6.8,3.4c0.3,0.5,0.5,1.1,0.9,1.6
				c4.7,6.2,4.8,14.1,0,19.8c-4.7,5.7-12.3,7.2-19.2,3.9c-0.5-0.2-1-0.5-1.4-0.7c0.7,2.4,1.6,4.8,2,7.2c0.8,5.1-1.6,9.2-4.6,13.1
				L6-5.6z M71.1-140.2c-3.7-6.8-3.1-13.1,1.3-19.2c-5.9,4.3-12,4.8-18.8,1.6c3.1,5.7,3,11,0.5,16.7
				C60.1-143.8,65.7-143.2,71.1-140.2z M-35-24.8c2.6,5.7,2.3,11-0.8,16.7c7.1-3.7,13.2-3.1,19.1,1.1c-4.1-6-4.5-12.1-0.9-18.9
				C-23.5-22.3-29-22.2-35-24.8z M-13.6-29.8c6-3.6,11.7-3.5,18.1,0.2c-3.7-6.1-3.6-11.6-0.8-17.7c-5.8,3.1-11.2,2.7-16.7,0.2
				C-10.3-39.8-10.4-37-13.6-29.8z M31-74.2c6.3-3.4,11.9-3.1,18.1,0.5c-3.7-6-3.8-11.5-0.7-17.6c-5.7,3-10.9,3.1-16.6,0.5
				C34.2-85.1,33.9-80,31-74.2z M-124-25.9c3.3,6.4,2.8,12.1-0.9,18.3c6.1-4.1,11.8-4.3,18.1-1.2c-2.8-5.5-3.1-10.6-0.6-16.2
				C-113.2-22.6-118.5-22.8-124-25.9z M-79.3-25.3c2.9,6,2.6,11.5-1,17.5c6.3-3.9,11.9-3.8,18.1-0.6c-3.3-5.6-3.2-10.8-0.9-16.5
				C-68.7-22.4-73.8-22.6-79.3-25.3z M32.9-119.5c5.4-2.1,10.4-1.7,15.8,1.2c-3.4-5.7-3.3-10.9-1.4-15.4c-4.4,0.2-9,0.4-13.6,0.6
				C35.3-129,34.9-124.3,32.9-119.5z M-129.1-31c-2.5-5.1-3-9.8-1.6-14c-4.4-0.1-8.8-0.3-13.1-0.4c0.2,1.8,0.7,4.1,0.6,6.4
				c-0.2,2.4-1,4.8-1.6,7.4C-139.6-33.9-134.5-33.8-129.1-31z M-55.1-31.8c4.1-1.9,8.8-1.6,13.9,0.6c-2.4-5-2.4-9.6-0.9-13.8
				c-4.3,0.1-8.5,0.2-12,0.2C-54.5-40.7-54.8-36.3-55.1-31.8z M25.5-97.2c-2.3-5.1-2.3-9.8-0.6-13.9c-4.2,0.1-8.5,0.3-12.4,0.4
				c-0.1,3.7-0.3,7.9-0.4,12.2C16.2-100,20.6-99.5,25.5-97.2z M-98.5-44.7c-0.3,4-0.6,8.3-0.9,12.6c4.3-1.9,9-1.6,13.1,0.2
				c-0.3-4.4-0.6-8.8-0.9-12.9C-90.8-44.7-94.9-44.7-98.5-44.7z M-19.9-53.6c-0.3-4.4-0.6-8.8-1-13.1c-1.5,0.2-3.5,0.7-5.5,0.7
				c-2,0-4-0.5-5.5-0.7c-0.2,4.1-0.5,8.2-0.7,12.4C-28.4-55.9-23.8-55.3-19.9-53.6z M12.8-155.2c0,3.9,0.1,7.8,0.1,11.4
				c3.6,0.1,7.5,0.3,11,0.4c0.1-3.8,0.1-8,0.2-12.1c-1.5,0.2-3.4,0.8-5.4,0.8C16.7-154.6,14.6-155,12.8-155.2z M1.5-77
				c0-3.8-0.1-8-0.1-11.9c-3.4,0.1-7.3,0.2-10.8,0.3c-0.1,3.7-0.1,7.6-0.2,11.1C-6-77.3-2-77.1,1.5-77z M-75.8-65.6
				c-0.2,3.2-0.4,6.7-0.6,9.8c3.6,0,7.4-0.1,11-0.1c-0.1-3.1-0.3-6.5-0.5-9.6C-69.1-65.6-72.5-65.6-75.8-65.6z M-109.9-56.1
				c-0.1-3-0.2-6.5-0.3-9.7c-3.1-0.1-6.5-0.1-9.7-0.2c-0.2,3.4-0.3,7-0.5,10.2C-117.2-55.9-113.6-56-109.9-56.1z M1.5-132.2
				c-3.2,0.2-6.6,0.4-9.8,0.6c0,3,0,6-0.1,8.8c3.4,0.2,6.7,0.5,9.8,0.7C1.5-125.4,1.5-128.8,1.5-132.2z M-53-78.4
				c3.3,0.1,6.5,0.2,9.6,0.3c0-3.1-0.1-6.4-0.1-9.5c-3,0.1-6.2,0.2-9.3,0.3C-52.8-84.4-52.9-81.4-53-78.4z M-30.3-109.3
				c-0.2,3-0.3,6.1-0.5,8.9c3.3,0.1,6.5,0.3,9.6,0.4c-0.1-3-0.3-6.3-0.4-9.5C-24.5-109.4-27.5-109.4-30.3-109.3z M-88.6-87.1
				c-2.9,0-5.8,0-8.5-0.1c-0.1,2.9-0.2,5.7-0.4,8.4c3,0.1,6.1,0.1,9.1,0.2C-88.4-81.4-88.5-84.2-88.6-87.1z M-66.8-101.2
				c-0.2-2.4-0.3-4.5-0.4-6.7c-2.3,0-4.5,0-6.7,0c-0.2,2.3-0.4,4.5-0.5,6.7C-71.8-101.2-69.4-101.2-66.8-101.2z M-44.3-123.8
				c-0.1-2.2-0.1-4.3-0.2-6.3c-2.1,0.1-4.1,0.2-6.3,0.4c0,1.9-0.1,3.8-0.1,5.6C-48.6-124-46.6-123.9-44.3-123.8z"/>
			<path class="st2" d="M-104.4,16c0.8-0.4,1.5-0.8,2.3-1.3c6.5-4.6,15.3-3.5,20.3,2.5c5,6,4.6,14.8-0.8,20.3
				c-5.4,5.5-14.3,6-20.3,1c-6.1-5-7.3-13.9-2.7-20.3c0.5-0.7,0.9-1.5,1.4-2.3L-104.4,16z"/>
			<path class="st2" d="M73.1-93.7c-2.5-3.6-4.7-7.4-4.2-12.1c0.7-7,5.6-12.7,12.5-13.9c6.7-1.2,13.5,2.4,16.3,8.5
				c2.9,6.2,1.2,13.7-4,18c-5.4,4.5-13,4.7-18.6,0.7c-0.7-0.5-1.3-0.9-2-1.3C73-93.8,73.1-93.7,73.1-93.7z"/>
			<path class="st2" d="M-34.5,29.7c-1.5,8.1-9.2,13.4-17.3,12c-8.3-1.5-13.6-9.2-12-17.5c1.5-8.1,9.3-13.3,17.4-11.8
				C-38.3,13.9-33,21.6-34.5,29.7z"/>
			<path class="st2" d="M-147.9,14.8c0.8-0.4,1.6-0.8,2.3-1.3c6.6-4.2,15.3-2.6,20,3.5c4.7,6.1,3.9,14.9-1.8,20.2
				c-5.7,5.2-14.6,5.2-20.3-0.1c-5.7-5.3-6.4-14-1.6-20.2c0.5-0.7,1-1.5,1.5-2.2C-147.8,14.8-147.9,14.8-147.9,14.8z"/>
			<path class="st2" d="M36.9-2.3c-8.1-1.4-13.5-9.1-12.1-17.2c1.4-8.2,9.2-13.6,17.4-12.1c8.1,1.5,13.4,9.2,11.9,17.3
				C52.7-6.2,45-0.8,36.9-2.3z"/>
			<path class="st2" d="M108.4-141.7c8.1,1.4,13.5,9.1,12.1,17.2c-1.4,8.1-9.1,13.5-17.2,12.1c-8.1-1.4-13.5-9.1-12.1-17.2
				C92.6-137.7,100.4-143.1,108.4-141.7z"/>
			<path class="st2" d="M76-36c-1.5,8.1-9.2,13.4-17.3,11.9c-8.2-1.5-13.5-9.3-12-17.5c1.5-8,9.3-13.3,17.4-11.8
				C72.2-51.9,77.5-44.1,76-36z"/>
			<path class="st2" d="M5.9-5.5c3.2-2.2,6.3-4.3,10.4-4.5c6.9-0.2,13.1,4,15,10.6c1.9,6.5-0.7,13.4-6.6,16.9
				c-5.9,3.6-13.4,2.6-18.2-2.3C1.7,10.3,0.9,2.8,4.5-3C5-3.9,5.5-4.7,6-5.6C6-5.6,5.9-5.5,5.9-5.5z"/>
			<path class="st2" d="M81.2-46.4c-8-1.5-13.4-9.4-11.8-17.4c1.6-7.9,9.4-13.2,17.3-11.7c8,1.5,13.4,9.4,11.8,17.4
				C96.8-50.3,89-45,81.2-46.4z"/>
			<path class="st2" d="M9.5,29.8C8,37.8,0.3,43.1-7.7,41.5c-7.9-1.6-13.1-9.1-11.6-17c1.5-8,9.2-13.3,17.1-11.7
				C5.8,14.4,10.9,21.9,9.5,29.8z"/>
			<path class="st2" d="M-100.9,51.2c-1.4,8-8.8,13.2-16.8,11.8c-8.1-1.4-13.3-8.9-11.8-17c1.5-7.9,8.9-13.1,16.9-11.7
				C-104.7,35.8-99.5,43.2-100.9,51.2z"/>
			<path class="st2" d="M-69,34.4c8,1.4,13.2,8.8,11.8,16.8c-1.4,8.1-8.9,13.3-17,11.8c-7.9-1.5-13.1-8.9-11.7-16.9
				C-84.4,38.2-77,33-69,34.4z"/>
			<path class="st2" d="M120.1-80.4c-1.4,8-8.7,13.2-16.7,11.9c-8.1-1.3-13.4-8.9-11.9-16.9c1.4-8,8.9-13.1,16.8-11.7
				C116.2-95.7,121.4-88.3,120.1-80.4z"/>
			<path class="st2" d="M-13.2,51.3C-14.6,59.2-22,64.4-29.8,63c-7.8-1.4-13.1-8.8-11.7-16.6c1.4-7.8,8.8-13.1,16.6-11.7
				C-17,36.1-11.8,43.5-13.2,51.3z"/>
			<path class="st2" d="M130.2-118.7c7.8,1.4,13,9,11.5,16.8c-1.5,7.6-8.9,12.8-16.6,11.4c-7.8-1.4-13-9-11.5-16.8
				C115-115,122.5-120.1,130.2-118.7z"/>
			<path class="st2" d="M97.2-14.3C95.8-6.7,88.3-1.5,80.7-2.8c-7.7-1.4-13-9-11.5-16.7c1.5-7.6,9-12.8,16.6-11.4
				C93.4-29.5,98.6-22,97.2-14.3z"/>
			<path class="st2" d="M75.2,8.2c-1.5,7.6-9,12.8-16.6,11.4c-7.7-1.4-13-9.1-11.4-16.8C48.7-4.9,56.3-10,63.9-8.5
				C71.5-7,76.7,0.5,75.2,8.2z"/>
			<path class="st2" d="M42,13.4c7.6,1.5,12.8,9.1,11.3,16.6c-1.5,7.7-9.2,12.8-16.7,11.2c-7.6-1.6-12.6-9-11.2-16.5
				C26.8,17.1,34.4,11.9,42,13.4z"/>
			<path class="st2" d="M-96,84.5c-7.6-1.4-12.9-9-11.4-16.6c1.5-7.6,9.1-12.8,16.6-11.3c7.6,1.5,12.6,8.9,11.3,16.4
				C-80.8,80.7-88.4,85.9-96,84.5z"/>
			<path class="st2" d="M108.1-52.5c7.6,1.3,12.9,8.9,11.4,16.5c-1.4,7.6-8.8,12.6-16.4,11.3c-7.6-1.3-12.9-8.9-11.4-16.5
				C93.1-48.8,100.5-53.8,108.1-52.5z"/>
			<path class="st2" d="M-145.6,52.4c-0.9,4.1-4,7.9-9.2,9.7c-5.2,1.8-9.9,0.8-14.2-2.7c-2.1-1.7-3.3-3.8-3.1-6.6
				c0.2-3.4,0.4-6.9,0.7-10.3c0.5-4.9,5.9-8.6,12-8.5C-150.3,34.3-143.7,42.4-145.6,52.4z"/>
			<path class="st2" d="M-123.8,72.8c-1.3,7.6-8.6,12.7-16.2,11.4c-7.7-1.3-12.9-8.7-11.5-16.4c1.4-7.6,8.7-12.6,16.3-11.3
				C-127.6,57.9-122.5,65.2-123.8,72.8z"/>
			<path class="st2" d="M-35.5,73.6c-1.6,7.6-8.9,12.4-16.5,10.8c-7.6-1.6-12.4-8.9-10.8-16.5c1.6-7.6,8.9-12.4,16.5-10.8
				C-38.7,58.6-33.9,65.9-35.5,73.6z"/>
			<path class="st2" d="M143-146.4c-1.6,6.3-6.5,11.1-12.7,11.9c-6.3,0.9-12.4-2.4-15.1-8.2c-2.6-5.6-1.3-12.5,3.3-16.6
				c2.1-1.9,4.1-3.4,7.5-1.8c4,1.9,8.3,3,12.6,4c2,0.5,2.8,1.6,3.2,3.2C142.3-151.4,142.6-148.9,143-146.4z"/>
			<path class="st2" d="M30.6,51.5c-1.4,7.7-8.5,12.7-16.2,11.3C6.7,61.3,1.8,54.2,3.2,46.5c1.4-7.6,8.5-12.5,16.1-11.2
				C27,36.7,32,43.8,30.6,51.5z"/>
			<path class="st2" d="M136.4-129.3c1.4-7.7,8.5-12.7,16.2-11.3c7.6,1.4,12.5,8.4,11.2,16c-1.4,7.7-8.5,12.7-16.2,11.3
				C140-114.6,135.1-121.7,136.4-129.3z"/>
			<path class="st2" d="M125.1-46.7c-7.7-1.4-12.7-8.5-11.2-16.2c1.4-7.6,8.5-12.5,16.1-11.1c7.7,1.4,12.7,8.5,11.2,16.2
				C139.7-50.3,132.6-45.4,125.1-46.7z"/>
			<path class="st2" d="M-2.6,57.9c7.4,1.4,12.4,8.6,11,15.9C7.1,81.3-0.2,86.3-7.7,84.9c-7.4-1.4-12.3-8.7-10.9-16
				C-17.2,61.5-9.9,56.5-2.6,57.9z"/>
			<path class="st2" d="M163.5-80.2c-1.3,7.3-8.6,12.4-15.9,11c-7.3-1.3-12.4-8.6-11-15.9c1.3-7.3,8.6-12.4,15.9-11
				C159.8-94.8,164.8-87.6,163.5-80.2z"/>
			<path class="st2" d="M-101.9,95.2c-1.2,7.3-8.5,12.4-15.9,11.1c-7.3-1.3-12.4-8.6-11.1-15.9c1.3-7.2,8.4-12.2,15.7-11
				C-105.8,80.6-100.7,87.8-101.9,95.2z"/>
			<path class="st2" d="M-58.3,95.4c-1.4,7.4-8.7,12.4-16,10.9c-7.3-1.5-12.1-8.6-10.8-15.8c1.4-7.4,8.7-12.4,16-10.9
				C-61.8,81.1-57,88.2-58.3,95.4z"/>
			<path class="st2" d="M118.7,8.1c-1.4,7.4-8.4,12.1-15.7,10.8c-7.4-1.4-12.2-8.4-10.8-15.7c1.4-7.4,8.4-12.1,15.7-10.8
				C115.3-6.2,120,0.8,118.7,8.1z"/>
			<path class="st2" d="M85.7,14.2c7.3,1.5,12,8.5,10.6,15.8c-1.5,7.3-8.5,12-15.8,10.6c-7.3-1.5-12-8.5-10.6-15.8
				C71.3,17.4,78.3,12.7,85.7,14.2z"/>
			<path class="st2" d="M-29.7,106.3c-7.4-1.3-12.2-8.1-10.9-15.5c1.3-7.3,8.1-12,15.4-10.8c7.4,1.3,12.2,8.1,10.9,15.5
				C-15.7,102.8-22.4,107.5-29.7,106.3z"/>
			<path class="st2" d="M125-3.6c-7.4-1.4-12.1-8.3-10.7-15.7c1.4-7.3,8.2-11.9,15.5-10.6c7.4,1.4,12.1,8.3,10.7,15.7
				C139.1-6.9,132.3-2.2,125-3.6z"/>
			<path class="st2" d="M48.1,46.6c1.4-7.4,8.4-12,15.8-10.4c7.2,1.5,11.8,8.4,10.3,15.7c-1.4,7.4-8.4,12-15.8,10.4
				C51.2,60.8,46.6,53.9,48.1,46.6z"/>
			<path class="st2" d="M174.1-117.6c7.3,1.3,12.1,8,10.8,15.3c-1.3,7.4-8.1,12.2-15.5,10.9c-7.3-1.3-12-8.1-10.7-15.4
				C160.1-114.2,166.8-118.9,174.1-117.6z"/>
			<path class="st2" d="M25.6,69c1.4-7.2,8.3-11.9,15.6-10.5c7.2,1.4,11.9,8.4,10.4,15.6c-1.4,7.1-8.3,11.7-15.4,10.4
				C29,83.1,24.3,76.2,25.6,69z"/>
			<path class="st2" d="M147.5-25.4c-7.2-1.3-12-8.3-10.7-15.5c1.3-7.1,8.2-11.8,15.3-10.6c7.2,1.3,12,8.3,10.7,15.5
				C161.5-28.9,154.6-24.1,147.5-25.4z"/>
			<path class="st2" d="M-80.7,117.1c-1.2,7-8.2,11.9-15.3,10.6c-7.1-1.3-11.9-8.3-10.5-15.3c1.3-7,8.1-11.7,15.1-10.5
				C-84.3,103-79.4,110-80.7,117.1z"/>
			<path class="st2" d="M-140,127.5c-7-1.2-11.9-8.2-10.6-15.2c1.3-7,8.1-11.7,15.1-10.5c7,1.2,11.9,8.2,10.6,15.2
				C-126.2,123.9-133,128.7-140,127.5z"/>
			<path class="st2" d="M184.5-57.9c-1.3,7-8.1,11.7-15.1,10.4c-7.1-1.3-11.9-8.3-10.4-15.3c1.4-7,8.3-11.6,15.2-10.2
				C181.2-71.6,185.8-64.8,184.5-57.9z"/>
			<path class="st2" d="M14.5,106.1c-7-1.2-11.7-8-10.5-15c1.2-7.1,8.2-11.9,15.2-10.6c7,1.4,11.7,8.2,10.4,15.1
				C28.3,102.6,21.5,107.3,14.5,106.1z"/>
			<path class="st2" d="M-162.1,106c-5.6-1.6-6.9-2.1-7.2-7.5c-0.2-3.7-1.1-7.3-1.2-11c-0.1-1.4,0.5-3.2,1.5-4.3
				c4.4-4.6,11.6-5.3,16.9-1.7c5.4,3.6,7.5,10.5,5,16.5C-149.6,103.8-155.9,107.2-162.1,106z"/>
			<path class="st2" d="M-36.6,117.3c-1.3,7.1-8,11.7-15,10.4c-7.1-1.3-11.7-8-10.4-15c1.3-7.1,8-11.7,15-10.4
				C-40,103.5-35.4,110.2-36.6,117.3z"/>
			<path class="st2" d="M129.6,15c7,1.3,11.5,8,10.1,14.9c-1.3,6.8-7.9,11.3-14.8,10c-7-1.3-11.5-8-10.1-14.9
				C116.1,18.2,122.7,13.8,129.6,15z"/>
			<path class="st2" d="M-8.1,127.4c-6.8-1.3-11.3-8-10-14.8c1.3-6.9,8.1-11.5,15-10.1c6.8,1.4,11.2,8.1,9.9,14.9
				C5.4,124.3-1.2,128.7-8.1,127.4z"/>
			<path class="st2" d="M103.1,61.8c-6.8-1.3-11.4-7.8-10.2-14.7c1.2-6.9,8-11.5,14.9-10.2c6.8,1.3,11.3,8,10,14.8
				C116.5,58.5,109.9,63.1,103.1,61.8z"/>
			<path class="st2" d="M85,59.1c6.8,1.2,11.5,7.8,10.3,14.6c-1.2,6.8-7.8,11.5-14.6,10.3c-6.8-1.2-11.5-7.8-10.3-14.6
				C71.6,62.7,78.2,58,85,59.1z"/>
			<path class="st2" d="M147.4,18.2c-6.8-1.2-11.4-7.9-10.2-14.7c1.2-6.8,7.9-11.4,14.7-10.2c6.8,1.2,11.4,7.9,10.2,14.7
				C160.9,14.8,154.2,19.5,147.4,18.2z"/>
			<path class="st2" d="M196.5-95c6.8,1.2,11.4,7.9,10.2,14.7c-1.2,6.8-7.9,11.4-14.7,10.2c-6.8-1.2-11.4-7.9-10.2-14.7
				C183-91.6,189.7-96.2,196.5-95z"/>
			<path class="st2" d="M-118.1,148.9c-6.8-1.1-11.5-7.9-10.2-14.6c1.2-6.7,7.7-11.2,14.5-10.1c6.8,1.1,11.5,7.9,10.2,14.6
				C-104.9,145.4-111.4,150-118.1,148.9z"/>
			<path class="st2" d="M-69.8,124.9c6.7,1.1,11.3,7.6,10.2,14.4c-1.1,6.8-7.8,11.5-14.6,10.3c-6.7-1.2-11.2-7.8-10.1-14.5
				C-83,128.4-76.5,123.8-69.8,124.9z"/>
			<path class="st2" d="M174-28.8c6.7,1.3,11.2,7.8,9.9,14.5c-1.3,6.7-7.8,11.2-14.5,9.9c-6.7-1.3-11.2-7.8-9.9-14.5
				C160.8-25.6,167.3-30.1,174-28.8z"/>
			<path class="st2" d="M48.9,90.8c1.5-6.7,8.1-11,14.7-9.5c6.7,1.5,11,8.1,9.5,14.7c-1.5,6.7-8.1,11-14.7,9.5
				C51.7,104.1,47.4,97.5,48.9,90.8z"/>
			<path class="st2" d="M195.9-50.3c6.7,1.3,10.9,7.7,9.5,14.4c-1.3,6.6-7.7,10.8-14.5,9.4c-6.5-1.3-10.7-7.6-9.4-14.2
				C182.8-47.4,189.2-51.6,195.9-50.3z"/>
			<path class="st2" d="M-15.6,139.5c-1.2,6.7-7.5,11.1-14.2,9.9c-6.7-1.2-11-7.5-9.8-14.2c1.2-6.6,7.4-10.9,14-9.7
				C-18.8,126.5-14.4,132.8-15.6,139.5z"/>
			<path class="st2" d="M36.4,127.1c-6.7-1.2-11-7.5-9.8-14.3c1.2-6.5,7.5-10.8,14.1-9.7c6.7,1.2,11,7.5,9.8,14.3
				C49.3,124,43,128.3,36.4,127.1z"/>
			<path class="st2" d="M227.6-58c-1.1,6.5-7.4,10.8-13.8,9.6c-6.5-1.2-10.8-7.4-9.5-13.9c1.2-6.4,7.3-10.6,13.7-9.5
				C224.4-70.7,228.8-64.5,227.6-58z"/>
			<path class="st2" d="M-126.3,160.9c-1.1,6.5-7.3,10.8-13.8,9.6c-6.5-1.2-10.8-7.4-9.5-13.9c1.2-6.4,7.2-10.6,13.6-9.5
				C-129.5,148.3-125.2,154.4-126.3,160.9z"/>
			<path class="st2" d="M-82.1,161.2c-1.2,6.5-7.4,10.8-13.9,9.5c-6.5-1.2-10.7-7.5-9.4-13.9c1.3-6.4,7.3-10.5,13.7-9.4
				C-85.2,148.5-80.9,154.7-82.1,161.2z"/>
			<path class="st2" d="M138.6,73.9c-1.2,6.4-7.2,10.5-13.6,9.3c-6.5-1.2-10.6-7.3-9.4-13.8c1.3-6.4,7.3-10.4,13.7-9.2
				C135.8,61.5,139.8,67.5,138.6,73.9z"/>
			<path class="st2" d="M-38,161.1c-1.1,6.5-7,10.7-13.4,9.6c-6.6-1.1-10.8-7.1-9.6-13.7c1.2-6.4,7.1-10.6,13.5-9.4
				C-41,148.8-36.8,154.7-38,161.1z"/>
			<path class="st2" d="M160.5,52.1c-1.2,6.5-7.4,10.7-13.9,9.3c-6.4-1.3-10.5-7.3-9.2-13.7c1.2-6.5,7.4-10.7,13.9-9.3
				C157.7,39.7,161.8,45.7,160.5,52.1z"/>
			<path class="st2" d="M18.7,125.9c6.5,1.2,10.7,7.3,9.4,13.8c-1.2,6.4-7.3,10.5-13.7,9.3c-6.5-1.2-10.7-7.3-9.4-13.8
				C6.3,128.8,12.3,124.8,18.7,125.9z"/>
			<path class="st2" d="M116.7,95.6c-1.2,6.5-7.1,10.6-13.6,9.4c-6.5-1.2-10.6-7.2-9.3-13.6c1.2-6.3,7.1-10.4,13.4-9.3
				C113.7,83.2,117.9,89.2,116.7,95.6z"/>
			<path class="st2" d="M183,29.8c-1.2,6.5-7.2,10.6-13.6,9.4c-6.4-1.2-10.5-7.2-9.3-13.7c1.2-6.3,7.1-10.4,13.5-9.3
				C180,17.3,184.1,23.3,183,29.8z"/>
			<path class="st2" d="M191.3,17.2c-6.3-1.1-10.5-7.2-9.3-13.4c1.1-6.3,7.2-10.5,13.4-9.3c6.3,1.1,10.5,7.2,9.3,13.4
				C203.6,14.1,197.6,18.4,191.3,17.2z"/>
			<path class="st2" d="M94.1,117.8c-1.1,6.2-7.2,10.5-13.4,9.3c-6.2-1.1-10.4-7.3-9.3-13.5c1.2-6.1,7.1-10.3,13.3-9.2
				C90.9,105.5,95.2,111.6,94.1,117.8z"/>
			<path class="st2" d="M-3.9,147.9c6.2,1,10.5,7.2,9.4,13.4c-1.1,6.1-7.1,10.3-13.2,9.2c-6.2-1-10.5-7.2-9.4-13.4
				C-16,151.1-10,146.9-3.9,147.9z"/>
			<path class="st2" d="M213.7-4.7c-6.1-1.1-10.3-7.2-9.1-13.3c1.2-6.1,7.3-10.3,13.3-9c6,1.2,10.1,7.1,9,13.1
				C225.9-7.8,219.9-3.6,213.7-4.7z"/>
			<path class="st2" d="M62.9,126.6c6.2,1.1,10.2,7.1,9,13.2c-1.2,6.1-7,10-13.1,8.9c-6.2-1.1-10.2-7.1-9-13.2
				C51,129.4,56.8,125.5,62.9,126.6z"/>
			<path class="st2" d="M-105.2,182.8c-1.1,6.2-6.9,10.1-13,9c-6.2-1.1-10.1-6.9-9-13c1.1-6.2,6.9-10.1,13-9
				C-107.9,170.9-104,176.6-105.2,182.8z"/>
			<path class="st2" d="M-60.9,182.8c-1.1,6.2-6.7,10.2-12.9,9.1c-6.2-1.1-10.1-6.8-9-12.9c1.1-6.1,6.7-10,12.7-9
				C-63.9,171-59.9,176.6-60.9,182.8z"/>
			<path class="st2" d="M235.7-27.4c-6-1.1-9.9-6.9-8.8-12.9c1.1-6,6.9-9.9,12.9-8.8c6,1.1,9.9,6.9,8.8,12.9
				C247.5-30.2,241.7-26.3,235.7-27.4z"/>
			<path class="st2" d="M-29.6,191.9c-5.9-1-10-6.9-8.9-12.8c1.1-5.9,6.9-9.9,12.9-8.8c5.8,1.1,9.8,6.8,8.8,12.6
				C-17.9,188.8-23.7,192.9-29.6,191.9z"/>
			<path class="st2" d="M40.4,148.6c5.9,1.1,9.9,7,8.8,12.9c-1.1,5.9-7,9.9-12.9,8.7c-5.8-1.2-9.7-6.9-8.7-12.7
				C28.7,151.5,34.5,147.5,40.4,148.6z"/>
			<path class="st2" d="M159.6,95.6c-1.1,5.8-6.9,9.8-12.7,8.6c-5.9-1.2-9.7-7-8.6-12.7c1.2-5.8,6.8-9.6,12.5-8.5
				C156.7,84,160.7,89.8,159.6,95.6z"/>
			<path class="st2" d="M160.8,69.6c1.4-5.9,7.2-9.6,12.9-8.2c5.9,1.4,9.6,7.3,8.2,13c-1.4,5.8-7.1,9.4-12.8,8.1
				C163.2,81.2,159.5,75.3,160.8,69.6z"/>
			<path class="st2" d="M182.7,48c1.2-5.8,6.7-9.6,12.5-8.4c5.9,1.1,9.7,6.8,8.5,12.7c-1.2,5.8-6.8,9.5-12.6,8.3
				C185.2,59.4,181.5,53.8,182.7,48z"/>
			<path class="st2" d="M125,126.4c-5.9-1.1-9.6-6.5-8.5-12.4c1.1-5.9,6.5-9.6,12.4-8.5c5.9,1.1,9.6,6.5,8.5,12.4
				C136.3,123.8,130.9,127.5,125,126.4z"/>
			<path class="st2" d="M227.6-100.5c-2.3,5.5-6.6,8.5-11.8,8.4c-5.2-0.1-9.6-3.4-11.3-8.2c-1.7-4.8-0.2-10.1,3.7-13.5
				c1.8-1.5,3.2-1.8,5.1-0.1C218.1-109.3,222.9-104.9,227.6-100.5z"/>
			<path class="st2" d="M213.9,38.2c-5.8-1-9.6-6.3-8.6-12.1c1-5.9,6.4-9.7,12.3-8.6c5.8,1.1,9.5,6.4,8.4,12.2
				C225,35.4,219.7,39.2,213.9,38.2z"/>
			<path class="st2" d="M18.3,171.4c5.7,1,9.5,6.4,8.5,12.1c-1,5.7-6.4,9.5-12.1,8.5c-5.7-1-9.5-6.4-8.5-12.1
				C7.1,174.2,12.6,170.4,18.3,171.4z"/>
			<path class="st2" d="M102.8,148.1c-5.7-1-9.6-6.4-8.6-12.1c1-5.7,6.4-9.6,12.1-8.6c5.7,1,9.6,6.4,8.6,12.1
				C113.9,145.2,108.5,149,102.8,148.1z"/>
			<path class="st2" d="M-95.8,213.6c-5.7-1-9.5-6.5-8.4-12.2c1-5.7,6.5-9.5,12.2-8.4c5.7,1,9.5,6.5,8.4,12.2
				C-84.6,210.9-90.1,214.6-95.8,213.6z"/>
			<path class="st2" d="M247.8,7.9c-1,5.5-6.5,9.3-12.1,8.3c-5.5-1-9.3-6.5-8.3-12.1c1-5.5,6.6-9.3,12.1-8.3
				C245-3.2,248.8,2.3,247.8,7.9z"/>
			<path class="st2" d="M-52.1,213.5c-5.5-1-9.3-6.5-8.3-12.1c1-5.5,6.6-9.3,12.1-8.3c5.5,1,9.3,6.6,8.3,12.1
				C-41,210.7-46.5,214.5-52.1,213.5z"/>
			<path class="st2" d="M92.8,161.2c-0.9,5.5-6.4,9.4-11.9,8.5c-5.5-0.9-9.4-6.5-8.4-12c1-5.4,6.3-9.2,11.8-8.3
				C89.8,150.2,93.7,155.7,92.8,161.2z"/>
			<path class="st2" d="M3.9,205.3c-1,5.5-6.1,9-11.6,8c-5.6-1-9.1-6.2-8-11.8c1.1-5.4,6.2-8.9,11.7-7.8
				C1.4,194.7,4.9,199.8,3.9,205.3z"/>
			<path class="st2" d="M269.8-13.9c-1,5.5-6.1,9-11.5,8c-5.6-1-9.2-6.2-8.1-11.8c1-5.5,6.2-8.9,11.7-7.9
				C267.3-24.5,270.8-19.4,269.8-13.9z"/>
			<path class="st2" d="M69.9,183.5c-0.9,5.4-6.1,9-11.6,8c-5.4-1-9-6.2-8-11.6c1-5.3,6.1-8.8,11.4-7.9
				C67.2,172.9,70.9,178.1,69.9,183.5z"/>
			<path class="st2" d="M184.8-135.1c7.1,5.1,13.9,9.9,20.9,14.8c-2.9,4.7-6.7,7.1-11.8,6.9c-5.6-0.2-9.6-2.9-11.7-8.1
				C180.4-126.3,181.4-130.7,184.8-135.1z"/>
			<path class="st2" d="M234.4-93.2c4.2,5,8.2,10,12.3,14.9c1.2,1.4,0.7,2.4-0.3,3.5c-3.1,3.4-8.1,4.7-12.3,3.1
				c-4.9-1.8-7.7-6-7.7-11.2C226.5-87.5,229.5-91.5,234.4-93.2z"/>
			<path class="st2" d="M202.8,95.5c-0.9,5.3-6.2,8.9-11.5,7.9c-5.2-1-8.7-6.1-7.8-11.3c0.9-5.3,6.2-8.9,11.5-7.9
				C200.2,85.2,203.7,90.3,202.8,95.5z"/>
			<path class="st2" d="M161.7,114.4c0.9-5.2,5.9-8.7,11.2-7.8c5.3,0.9,8.9,6.1,7.8,11.4c-1,5.2-6.1,8.6-11.3,7.7
				C164.2,124.7,160.7,119.6,161.7,114.4z"/>
			<path class="st2" d="M-73.8,234.6c-5.2-1-8.7-6-7.8-11.2c0.9-5.3,6.1-8.9,11.4-7.8c5.2,1,8.6,6.1,7.6,11.3
				C-63.6,232.1-68.6,235.6-73.8,234.6z"/>
			<path class="st2" d="M146.9,147.2c-5.3-1-8.6-6-7.5-11.3c1.1-5.3,6-8.5,11.3-7.5c5.2,1.1,8.4,5.9,7.4,11.1
				C157.2,144.9,152.2,148.3,146.9,147.2z"/>
			<path class="st2" d="M213.9,81.5c-5.3-0.9-8.7-5.8-7.7-11.1c1-5.3,5.9-8.7,11.2-7.7c5.2,1,8.5,5.8,7.6,11
				C224.1,79,219.2,82.4,213.9,81.5z"/>
			<path class="st2" d="M228.2,48.5c1-5.2,5.8-8.5,11-7.6c5.2,1,8.5,5.8,7.6,11c-1,5.2-5.8,8.5-11,7.6
				C230.5,58.5,227.2,53.7,228.2,48.5z"/>
			<path class="st2" d="M47.6,205.2c-0.9,5.2-5.7,8.6-10.9,7.7c-5.2-0.9-8.6-5.7-7.7-10.9c0.9-5.2,5.7-8.6,10.9-7.7
				C45.1,195.2,48.5,200,47.6,205.2z"/>
			<path class="st2" d="M136.1,161.9c-0.9,5.2-5.8,8.5-10.9,7.6c-5.2-0.9-8.5-5.8-7.5-11c1-5,5.7-8.4,10.8-7.5
				C133.6,151.9,137,156.7,136.1,161.9z"/>
			<path class="st2" d="M-26.3,216c5.2,0.9,8.6,5.7,7.7,10.9c-0.9,5.2-5.8,8.6-10.9,7.6c-5.1-0.9-8.4-5.7-7.6-10.7
				C-36.2,218.6-31.4,215.1-26.3,216z"/>
			<path class="st2" d="M268.5,29.5c-0.9,4.9-5.9,8.4-10.8,7.5c-5-0.9-8.4-5.9-7.4-10.9c1-4.8,5.8-8.2,10.6-7.4
				C265.9,19.6,269.4,24.5,268.5,29.5z"/>
			<path class="st2" d="M113.4,183.7c-1,4.9-5.8,8.2-10.7,7.3c-5-0.9-8.4-6-7.3-10.9c1.1-4.9,5.9-8.1,10.8-7.1
				C111.1,174,114.3,178.8,113.4,183.7z"/>
			<path class="st2" d="M25.2,227c-0.9,4.9-5.4,8.1-10.3,7.2c-4.9-0.9-8.1-5.4-7.2-10.3c0.9-4.9,5.4-8.1,10.3-7.2
				C22.9,217.6,26,222.1,25.2,227z"/>
			<path class="st2" d="M-163.8,124.9c6.7-2,13,0.8,15.5,6.6c2.4,5.6,0.4,12.1-4.8,15.4c-1.9,1.2-2.9,1.3-3.7-1.2
				C-159,138.8-161.5,131.9-163.8,124.9z"/>
			<path class="st2" d="M-48.7,239c4.7,0.9,7.9,5.7,6.9,10.3c-1,4.6-5.6,7.7-10.1,6.8c-4.7-0.9-7.9-5.7-6.9-10.3
				C-57.9,241.2-53.3,238.1-48.7,239z"/>
			<path class="st2" d="M91.2,205.3c-0.8,4.7-5.4,8-10.1,7.2c-4.7-0.8-8-5.4-7.1-10.1c0.8-4.7,5.4-8,10.1-7.2
				C88.7,195.9,92,200.6,91.2,205.3z"/>
			<path class="st2" d="M201.2,139.6c-0.9,4.6-5.2,7.5-9.8,6.6c-4.6-0.9-7.5-5.2-6.6-9.8c0.9-4.6,5.2-7.5,9.8-6.6
				C199.2,130.7,202.1,135,201.2,139.6z"/>
			<path class="st2" d="M223.1,117.8c-0.9,4.6-5.1,7.5-9.8,6.7c-4.7-0.9-7.7-5.2-6.7-10c0.9-4.6,5.3-7.4,9.9-6.5
				C221.2,108.9,224,113.2,223.1,117.8z"/>
			<path class="st2" d="M172.7,152.3c4.6,0.9,7.4,5.3,6.4,9.9c-1,4.4-5.3,7.2-9.8,6.3c-4.6-0.9-7.4-5.3-6.4-9.9
				C163.9,154.1,168.2,151.3,172.7,152.3z"/>
			<path class="st2" d="M245.4,96.1c-0.9,4.6-5.3,7.4-9.9,6.4c-4.4-1-7.2-5.3-6.3-9.8c0.9-4.6,5.3-7.4,9.9-6.4
				C243.5,87.3,246.3,91.6,245.4,96.1z"/>
			<path class="st2" d="M-14.2,246.1c0.9-4.6,5.3-7.5,9.9-6.5c4.4,0.9,7.3,5.2,6.4,9.7c-0.9,4.6-5.3,7.5-9.9,6.5
				C-12.3,254.9-15.1,250.6-14.2,246.1z"/>
			<path class="st2" d="M68.1,227.5c-0.8,4.4-5.2,7.4-9.6,6.6c-4.4-0.8-7.4-5.2-6.6-9.6c0.8-4.4,5.2-7.4,9.6-6.6
				C66,218.8,68.9,223.1,68.1,227.5z"/>
			<path class="st2" d="M280.2,15c-4.8-0.9-8-5.2-7.3-10.1c0.7-4.9,5-8.2,9.7-7.7c1.5,0.2,2.3,0.7,2.6,2.2c0.9,3.9,2,7.8,2.8,11.8
				c0.1,0.6-0.3,1.8-0.7,2c-2.3,1-4.6,1.8-6.9,2.6C280.4,15.5,280.3,15.2,280.2,15z"/>
			<path class="st2" d="M267.3,73.5c-0.8,4.4-5.2,7.5-9.6,6.6c-4.4-0.8-7.4-5.3-6.6-9.6c0.8-4.3,5.1-7.2,9.4-6.5
				C265,64.7,268.1,69.1,267.3,73.5z"/>
			<path class="st2" d="M95.6-159.4c-0.2-0.3-0.5-0.6-0.7-0.9c-1.3-2.4-2.6-4.9-4.2-8c9.8,1.8,18.8,3.4,27.7,5
				c-1.6,4.6-8.1,8.3-13.9,7.3C101.4-156.6,98.5-158.2,95.6-159.4z"/>
			<path class="st2" d="M147.2,190.1c-4.3-0.8-7.3-5.1-6.6-9.4c0.7-4.4,5.2-7.5,9.6-6.6c4.3,0.9,7.2,5.2,6.4,9.5
				C155.8,187.9,151.5,190.9,147.2,190.1z"/>
			<path class="st2" d="M280.4,58.2c-4.4-0.7-7.2-4.7-6.5-9c0.7-4.5,4.8-7.3,9.2-6.5c4.3,0.8,7.1,4.8,6.3,9.1
				C288.7,56.1,284.7,58.9,280.4,58.2z"/>
			<path class="st2" d="M128.3,196.3c4.3,0.8,7,4.9,6.1,9.3c-0.9,4.1-4.9,6.8-9.1,6c-4.3-0.8-7-4.9-6.1-9.2
				C120,198.1,124.1,195.5,128.3,196.3z"/>
			<path class="st2" d="M45.7,249.2c-0.8,4.2-4.8,7-9,6.2c-4.2-0.8-7-4.8-6.2-9c0.8-4.2,4.8-7,9-6.2C43.7,241,46.5,245.1,45.7,249.2
				z"/>
			<path class="st2" d="M-26.6,262c4.1,0.8,6.9,4.9,6.1,9c-0.8,4-4.8,6.8-8.8,6.1c-4.2-0.8-7-4.8-6.3-8.9
				C-34.8,264.1-30.7,261.2-26.6,262z"/>
			<path class="st2" d="M105.5,219c4,0.7,6.6,4.4,5.9,8.4c-0.7,4.2-4.5,6.8-8.7,6c-4-0.8-6.5-4.5-5.8-8.5
				C97.8,220.8,101.5,218.2,105.5,219z"/>
			<path class="st2" d="M253.8-68.6c3.7,6.1,7.4,12.1,11,18c-4.8,2.5-10.4,1-13.4-3.3C248.2-58.4,249-64.1,253.8-68.6z"/>
			<path class="st2" d="M22.6,270.9c-0.7,3.7-4.5,6.3-8.2,5.5c-3.7-0.8-6.3-4.6-5.5-8.3c0.8-3.6,4.4-6.1,8.1-5.4
				C20.7,263.4,23.3,267.2,22.6,270.9z"/>
			<path class="st2" d="M244,139.4c-0.7,3.7-4.1,6.2-7.9,5.5c-3.8-0.7-6.3-4.3-5.5-8.1c0.8-3.7,4.3-6.1,8-5.4
				C242.3,132.2,244.7,135.6,244,139.4z"/>
			<path class="st2" d="M216,153.7c3.7,0.7,6.1,4.2,5.5,7.9c-0.7,3.8-4.3,6.3-8.1,5.5c-3.7-0.8-6-4.3-5.3-8
				C208.8,155.4,212.3,153,216,153.7z"/>
			<path class="st2" d="M265.7,117.6c-0.7,3.8-4.2,6.1-8,5.3c-3.7-0.8-6-4.2-5.2-8c0.8-3.6,4.1-5.9,7.8-5.2
				C264.1,110.4,266.5,113.9,265.7,117.6z"/>
			<path class="st2" d="M288.1,95.7c-0.6,3.7-3.9,6.1-7.6,5.5c-3.8-0.6-6.2-4-5.5-7.8c0.7-3.6,4-6,7.7-5.3
				C286.3,88.7,288.7,92,288.1,95.7z"/>
			<path class="st2" d="M199.4,183.4c-0.6,3.7-4,6-7.6,5.4c-3.8-0.6-6.2-4.1-5.5-7.9c0.7-3.6,4.1-5.9,7.7-5.3
				C197.7,176.4,200.1,179.7,199.4,183.4z"/>
			<path class="st2" d="M89,249.3c-0.7,3.8-4.2,6.1-8,5.3c-3.7-0.8-6-4.2-5.2-8c0.8-3.6,4.1-5.9,7.8-5.2
				C87.4,242.1,89.7,245.5,89,249.3z"/>
			<path class="st2" d="M180.2-137.9c-5.4,3.3-10.1,3.5-14.8,0.9c-4.5-2.5-6.7-6.5-6.9-12.3C165.8-145.5,172.7-141.8,180.2-137.9z"
				/>
			<path class="st2" d="M169.3,210.4c-3.4-0.6-5.9-4-5.4-7.5c0.6-3.5,4.2-6.1,7.7-5.4c3.4,0.7,5.8,4.2,5.2,7.6
				C176.3,208.6,172.8,211,169.3,210.4z"/>
			<path class="st2" d="M149.6,220.3c3.3,0.6,5.5,3.8,4.9,7.1c-0.6,3.3-3.8,5.5-7.1,4.9c-3.3-0.6-5.5-3.8-4.9-7.1
				C143.1,221.9,146.3,219.7,149.6,220.3z"/>
			<path class="st2" d="M58.7,275.7c-3.3-0.7-5.4-3.8-4.8-7.2c0.7-3.3,3.8-5.4,7.2-4.8c3.3,0.7,5.4,3.8,4.8,7.2
				C65.3,274.3,62.1,276.4,58.7,275.7z"/>
			<path class="st2" d="M125.1,253.5c-3.1-0.6-5-3.4-4.5-6.5c0.6-3.1,3.4-5,6.5-4.5c3.1,0.6,5,3.4,4.5,6.5
				C131,252.2,128.2,254.1,125.1,253.5z"/>
			<path class="st2" d="M236.1,187.2c-2.6-0.5-4.4-3.1-3.9-5.7c0.5-2.7,3.3-4.5,5.9-3.9c2.6,0.6,4.3,3.3,3.7,5.8
				C241.4,186,238.7,187.8,236.1,187.2z"/>
			<path class="st2" d="M258.1,165.5c-2.8-0.5-4.5-3.1-4-5.9c0.5-2.8,3.2-4.5,5.9-3.9c2.7,0.6,4.3,3,3.9,5.7
				C263.4,164.2,260.9,166,258.1,165.5z"/>
			<path class="st2" d="M105,265c2.8,0.5,4.6,3.1,4.1,5.8c-0.5,2.8-3.1,4.5-5.9,4c-2.7-0.5-4.4-3-4-5.7
				C99.7,266.3,102.2,264.5,105,265z"/>
			<path class="st2" d="M213.5,209.4c-2.6-0.6-4.3-3.4-3.6-5.9c0.7-2.5,3.3-4.1,5.7-3.5c2.6,0.6,4.3,3.4,3.6,5.9
				C218.6,208.3,215.9,209.9,213.5,209.4z"/>
			<path class="st2" d="M42.9,294.8c-3.4-0.4-6.6-0.8-10.1-1.2c-0.8-2.5,0-4.4,1.9-5.9c1.9-1.4,4-1.6,6.1-0.3
				C43.1,288.9,43.8,291,42.9,294.8z"/>
			<path class="st2" d="M193.6,222.1c2.5,0.5,4,2.8,3.5,5.4c-0.5,2.5-2.9,4-5.4,3.4c-2.4-0.6-3.8-2.8-3.3-5.2
				C188.8,223.1,191.1,221.6,193.6,222.1z"/>
			<path class="st2" d="M171,243.9c2.3,0.4,4,2.6,3.6,5c-0.4,2.5-2.8,4.1-5.2,3.7c-2.3-0.5-3.9-2.8-3.5-5.1
				C166.4,245.1,168.7,243.5,171,243.9z"/>
			<path class="st2" d="M152.3,271.4c-0.5,2.3-2.6,3.7-4.9,3.1c-2.2-0.5-3.5-2.6-3-4.8c0.5-2.3,2.6-3.7,4.9-3.1
				C151.5,267.1,152.8,269.2,152.3,271.4z"/>
			<path class="st2" d="M-172.1,60.9c5.2,5.1,5.3,13,0.5,18.3C-171.8,73.1-171.9,67.2-172.1,60.9z"/>
			<path class="st2" d="M78.1,290.5c0.6-0.5,1.7-2,3.1-2.3c1.3-0.3,3.1,0.3,4.1,1.2c0.8,0.7,1.2,2.5,1.1,3.7c0,0.5-1.7,1-2.8,1.3
				c-0.9,0.3-1.9,0.3-2.9,0.4C78.5,294.9,77.5,293.7,78.1,290.5z"/>
			<path class="st2" d="M282.5,133.9c-1.1,3.3-2.1,6.3-3.1,9.4c-2.6-1.2-3.6-3.1-3-5.6C277,135.1,278.8,133.8,282.5,133.9z"/>
			<path class="st2" d="M-170.7,35.4c0.9-4.9,1.8-9.7,2.6-14.6c2.5,5.4,1.6,10.3-1.9,14.8C-170.2,35.5-170.4,35.5-170.7,35.4z"/>
			<path class="st2" d="M-106.3,224.8c-3.1-3.4-5.9-6.4-8.8-9.5C-110.3,215.3-106.6,219.1-106.3,224.8z"/>
			<path class="st2" d="M-91.3,237.4c2.1,1.7,4.1,3.4,6.2,5.1c-0.3,0.3-0.5,0.6-0.8,0.9c-2-1.7-4.1-3.5-6.1-5.2
				C-91.8,238-91.6,237.7-91.3,237.4z"/>
		</g>
		<g class="st3">
			<g class="st4">
				<path class="st5" d="M586.1,396.9c5-3.4,10.3-5.7,16.4-4c2.5,0.7,4.7,2,7.7,3.2c-3-4.3-4.3-8.6-3.6-13.3c0.7-4.8,3-8.7,6.8-11.6
					c6-4.5,14.3-4.6,20.5-0.2c7.2,5.1,8.7,12.3,4.8,23.9c6.5-3.6,12.9-3.8,19.8,0c-2.3-4.8-3.3-9.1-2.1-13.8
					c1.2-4.6,3.7-8.2,7.6-10.7c6.3-4.1,14.6-3.7,20.5,1.1c6.8,5.4,8,12.6,4,23.8c6.6-3.9,13.1-4.3,20.3-0.4
					c-4.3-8.6-2.9-15.9,2.9-22.6l-0.1,0.1c4.4-3.1,9-5.2,14.5-4.4c12,1.7,18.7,14,13.6,25c-0.4,0.8-0.8,1.6-1.4,3.1
					c7-4.4,13.7-4.6,20.7-0.8c-0.8-2.7-1.6-5-2-7.3c-1-5.4,1.3-10,4.2-14.3l-0.1,0.1c4.2-3.3,8.6-5.9,14.2-5.4
					c0.7,0.1,1.5,0.1,2.2,0.2c5.5,1,6.2,1.7,4.9,7.1c-2,8.6-4.3,17.1-6.6,25.5c-0.2,0.8-1.9,1.8-2.7,1.7c-2.8-0.4-5.6-1.3-8.6-2.1
					c3.6,6.1,3.6,12.4,0.3,19c1.7-0.6,3.1-1,5-1.7c-28.7,68-76.4,116.2-143.6,146c-0.1-1.7-0.3-2.9-0.3-4c0-1.2,0.2-2.5,0.3-3.7
					c-3-0.1-5.8-0.2-8.6-0.4c0,3,0,6,0,9.2c1.6-0.1,3.3-0.2,5-0.3c-22.2,9.4-45.3,15.4-69.5,18c0.4-1.8,0.8-3.5,1.3-5.5
					c-5.7,2.1-10.9,1.6-16.2-1c0.7,2.6,1.4,5,2.2,8.1c-12.3-0.1-23.9-0.2-36.7-0.3c1.7-4.1,3.1-7.3,4.2-9.8c-2.9,0.9-6.3,2.4-9.9,3
					c-5.1,0.9-9.3-1.8-13.4-4.4c-0.3-0.4-0.6-0.7-0.8-1.1c-3.8-5.3-5.7-11-3.4-17.4c3.8-10.7,15.4-15,25.3-9.5
					c0.5,0.3,1.1,0.6,2.2,1.2c-4.9-8.9-4.8-17.1,2.4-24c6.2-5.9,13.4-6,21.6-2.3c-3.4-6.8-3.8-13.2,0-19.9c-1.3,0.5-2.2,0.9-3.1,1.2
					c-6.1,2.2-11.7,1.4-16.9-2.4c-0.8-0.6-1.7-1.2-2.5-1.8l0.1,0.1c-1.5-3.5-3.8-6.9-4.2-10.5c-1.7-13.4,12-23.2,24.4-17.8
					c1,0.4,2,1,3.5,1.8c-3.5-5.7-4.4-11.2-2.2-16.9c4.4-11.2,18-14.8,27.5-7.4c0.7,0.5,1.3,1,2,1.4c3.7,5.2,5.8,10.8,3.9,17.3
					c-0.4,1.4-1,2.7-1.7,4.6c6-3.7,11.8-3.7,18.2-1.5c-2.3-6.3-2-12,1.2-18.1c-4.9,2.4-9.4,3.1-13.9,1.6c-2.7-0.9-5.2-2.5-7.7-3.8
					c-0.3-0.6-0.6-1.2-1-1.8c-5.4-7-5.4-16,0-22.6c5.3-6.4,14.1-8.2,21.9-4.4c0.5,0.3,1.1,0.5,1.6,0.8c-0.8-2.8-1.9-5.5-2.3-8.2
					c-0.9-5.8,1.8-10.5,5.3-14.9L586.1,396.9z M511.9,550.2c4.2,7.7,3.6,14.9-1.5,21.9c6.7-4.9,13.6-5.5,21.4-1.9
					c-3.6-6.5-3.4-12.6-0.5-19.1C524.5,554.4,518.2,553.7,511.9,550.2z M632.8,418.9c-3-6.5-2.6-12.5,1-19c-8.1,4.3-15,3.5-21.7-1.3
					c4.7,6.8,5.1,13.7,1,21.5C619.7,416,626,415.9,632.8,418.9z M608.4,424.5c-6.8,4.1-13.4,4-20.6-0.2c4.3,7,4.1,13.2,0.9,20.1
					c6.6-3.5,12.7-3.1,19-0.2C604.6,435.9,604.8,432.7,608.4,424.5z M557.6,475.1c-7.2,3.8-13.6,3.5-20.6-0.6
					c4.2,6.8,4.3,13.1,0.8,20c6.5-3.5,12.4-3.5,18.9-0.6C554,487.5,554.3,481.7,557.6,475.1z M734.2,420.1c-3.7-7.3-3.2-13.8,1-20.8
					c-7,4.7-13.5,4.9-20.6,1.3c3.2,6.2,3.5,12.1,0.6,18.5C721.9,416.3,727.8,416.5,734.2,420.1z M683.2,419.4
					c-3.2-6.8-3-13,1.1-19.9c-7.2,4.4-13.6,4.4-20.6,0.7c3.7,6.4,3.7,12.3,1,18.8C671.1,416.1,677,416.3,683.2,419.4z M555.5,526.6
					c-6.1,2.4-11.8,2-18-1.3c3.9,6.4,3.8,12.4,1.6,17.5c5.1-0.2,10.2-0.4,15.5-0.7C552.7,537.5,553.2,532.2,555.5,526.6z
					 M739.9,425.9c2.9,5.8,3.4,11.1,1.9,16c5.1,0.2,10.1,0.3,14.9,0.5c-0.2-2-0.8-4.7-0.7-7.3c0.2-2.7,1.2-5.4,1.8-8.4
					C752,429.2,746.2,429.1,739.9,425.9z M655.7,426.8c-4.7,2.1-10,1.8-15.8-0.7c2.8,5.7,2.7,10.9,1.1,15.7
					c4.9-0.1,9.6-0.2,13.7-0.3C655,436.9,655.4,431.9,655.7,426.8z M563.9,501.3c2.6,5.8,2.7,11.2,0.7,15.9
					c4.8-0.2,9.7-0.3,14.1-0.5c0.1-4.2,0.3-9,0.5-13.9C574.5,504.4,569.5,503.9,563.9,501.3z M705.1,441.5c0.3-4.5,0.7-9.4,1.1-14.3
					c-4.9,2.1-10.3,1.8-15-0.3c0.4,5,0.7,10.1,1.1,14.7C696.4,441.5,701,441.5,705.1,441.5z M615.6,451.6c0.4,5,0.7,10.1,1.1,14.9
					c1.7-0.2,4-0.8,6.2-0.8c2.3,0,4.5,0.5,6.3,0.8c0.3-4.7,0.6-9.3,0.8-14.1C625.3,454.2,620,453.6,615.6,451.6z M578.3,567.4
					c0-4.5-0.1-8.9-0.1-12.9c-4.1-0.2-8.6-0.3-12.5-0.5c-0.1,4.4-0.2,9.1-0.3,13.8c1.7-0.3,3.9-0.9,6.2-0.9
					C574,566.7,576.3,567.2,578.3,567.4z M591.2,478.2c0,4.3,0.1,9.1,0.1,13.5c3.9-0.1,8.3-0.2,12.3-0.3c0.1-4.2,0.2-8.7,0.2-12.7
					C599.7,478.6,595.2,478.4,591.2,478.2z M679.3,465.3c0.2-3.7,0.5-7.6,0.7-11.2c-4.1,0.1-8.5,0.1-12.6,0.2
					c0.2,3.5,0.3,7.4,0.5,11C671.6,465.3,675.5,465.3,679.3,465.3z M718.1,454.5c0.1,3.5,0.2,7.4,0.4,11.1c3.5,0.1,7.4,0.1,11.1,0.2
					c0.2-3.8,0.4-7.9,0.6-11.6C726.4,454.3,722.3,454.4,718.1,454.5z M591.2,541.2c3.6-0.2,7.5-0.5,11.1-0.7c0-3.4,0-6.8,0.1-10
					c-3.8-0.3-7.6-0.5-11.1-0.7C591.2,533.4,591.2,537.3,591.2,541.2z M653.3,479.9c-3.7-0.1-7.4-0.3-10.9-0.4
					c0,3.6,0.1,7.3,0.1,10.9c3.4-0.1,7-0.2,10.6-0.3C653.1,486.8,653.2,483.3,653.3,479.9z M627.4,515.1c0.2-3.4,0.4-6.9,0.5-10.2
					c-3.7-0.2-7.4-0.3-10.9-0.4c0.2,3.5,0.3,7.2,0.5,10.8C620.8,515.2,624.2,515.1,627.4,515.1z M693.9,489.7c3.4,0,6.6,0,9.7,0.1
					c0.1-3.3,0.3-6.5,0.4-9.5c-3.4-0.1-7-0.1-10.4-0.2C693.7,483.2,693.8,486.4,693.9,489.7z M669,505.9c0.2,2.7,0.3,5.1,0.5,7.6
					c2.7,0,5.1,0,7.6,0c0.2-2.6,0.4-5.1,0.6-7.6C674.8,505.8,672,505.9,669,505.9z M643.4,531.5c0.1,2.6,0.2,4.9,0.2,7.2
					c2.4-0.1,4.7-0.3,7.1-0.4c0-2.2,0.1-4.3,0.1-6.4C648.3,531.8,646,531.7,643.4,531.5z"/>
				<path class="st5" d="M711.9,372.4c-0.9,0.5-1.8,0.9-2.6,1.5c-7.4,5.2-17.5,4-23.2-2.9c-5.7-6.8-5.3-16.8,1-23.1
					c6.2-6.3,16.3-6.8,23.1-1.2c6.9,5.7,8.3,15.8,3.1,23.2c-0.6,0.8-1,1.7-1.6,2.6L711.9,372.4z"/>
				<path class="st5" d="M509.7,497.3c2.9,4.2,5.3,8.4,4.8,13.8c-0.8,8-6.4,14.4-14.2,15.8c-7.6,1.3-15.3-2.7-18.6-9.7
					c-3.3-7-1.4-15.6,4.6-20.5c6.1-5.1,14.8-5.4,21.2-0.8c0.7,0.5,1.5,1,2.3,1.5L509.7,497.3z"/>
				<path class="st5" d="M632.2,356.7c1.7-9.3,10.4-15.3,19.7-13.7c9.4,1.7,15.5,10.5,13.7,19.9c-1.7,9.2-10.5,15.2-19.8,13.5
					C636.5,374.8,630.5,366,632.2,356.7z"/>
				<path class="st5" d="M761.4,373.7c-0.9,0.5-1.8,0.9-2.6,1.5c-7.5,4.7-17.4,3-22.7-4c-5.4-7-4.5-17,2.1-23
					c6.5-5.9,16.6-5.9,23.1,0.1c6.5,6,7.3,16,1.9,23c-0.6,0.8-1.2,1.7-1.7,2.5C761.3,373.8,761.4,373.7,761.4,373.7z"/>
				<path class="st5" d="M550.9,393.2c9.2,1.6,15.4,10.4,13.8,19.6c-1.6,9.4-10.5,15.5-19.8,13.8c-9.2-1.7-15.2-10.5-13.6-19.7
					C533,397.6,541.7,391.5,550.9,393.2z"/>
				<path class="st5" d="M469.5,552c-9.2-1.6-15.4-10.4-13.8-19.6c1.6-9.2,10.4-15.4,19.6-13.8c9.2,1.6,15.4,10.4,13.8,19.6
					C487.4,547.4,478.6,553.6,469.5,552z"/>
				<path class="st5" d="M506.4,431.6c1.7-9.2,10.5-15.3,19.7-13.6c9.3,1.7,15.4,10.6,13.6,19.9c-1.7,9.1-10.6,15.1-19.8,13.4
					C510.7,449.7,504.7,440.8,506.4,431.6z"/>
				<path class="st5" d="M586.2,396.9c-3.6,2.5-7.1,4.9-11.8,5.1c-7.8,0.3-14.9-4.6-17.1-12.1c-2.2-7.4,0.8-15.3,7.5-19.3
					c6.7-4.1,15.2-3,20.7,2.6c5.5,5.6,6.4,14.1,2.3,20.8c-0.6,1-1.2,1.9-1.7,2.9C586.1,396.9,586.2,396.9,586.2,396.9z"/>
				<path class="st5" d="M500.5,443.5c9.1,1.7,15.3,10.8,13.5,19.8c-1.8,9-10.7,15-19.6,13.4c-9.1-1.7-15.3-10.8-13.5-19.8
					C482.6,447.8,491.5,441.8,500.5,443.5z"/>
				<path class="st5" d="M582.2,356.6c1.7-9.1,10.5-15.1,19.5-13.3c9,1.8,14.9,10.4,13.2,19.3c-1.7,9.1-10.5,15.1-19.5,13.3
					C586.4,374.2,580.5,365.6,582.2,356.6z"/>
				<path class="st5" d="M707.9,332.3c1.6-9.1,10-15,19.1-13.5c9.2,1.6,15.2,10.2,13.5,19.3c-1.7,9.1-10.2,14.9-19.2,13.3
					C712.2,349.8,706.3,341.3,707.9,332.3z"/>
				<path class="st5" d="M671.6,351.4c-9.1-1.6-15-10-13.5-19.1c1.6-9.2,10.2-15.2,19.3-13.5c9.1,1.7,14.9,10.2,13.3,19.2
					C689.1,347.1,680.6,353,671.6,351.4z"/>
				<path class="st5" d="M456.2,482.1c1.5-9.1,10-15,19-13.5c9.2,1.5,15.2,10.1,13.6,19.3c-1.6,9.1-10.1,14.9-19.2,13.4
					C460.6,499.6,454.6,491.2,456.2,482.1z"/>
				<path class="st5" d="M608,332.1c1.6-8.9,10-14.9,18.9-13.3c8.9,1.6,14.9,10,13.3,18.9c-1.6,8.9-10,14.9-18.9,13.3
					C612.3,349.4,606.4,341,608,332.1z"/>
				<path class="st5" d="M444.7,525.8c-8.8-1.6-14.8-10.3-13.1-19.1c1.7-8.7,10.2-14.5,18.9-13c8.8,1.6,14.8,10.3,13.1,19.1
					C461.9,521.5,453.4,527.4,444.7,525.8z"/>
				<path class="st5" d="M482.2,406.9c1.6-8.7,10.1-14.6,18.8-13.1c8.8,1.5,14.8,10.3,13.2,19.1c-1.7,8.7-10.3,14.6-18.9,12.9
					C486.6,424.2,480.7,415.6,482.2,406.9z"/>
				<path class="st5" d="M507.3,381.3c1.7-8.7,10.2-14.6,18.9-13c8.8,1.6,14.8,10.4,13,19.2c-1.8,8.7-10.4,14.5-19,12.8
					C511.5,398.6,505.6,390,507.3,381.3z"/>
				<path class="st5" d="M545.1,375.4c-8.7-1.7-14.6-10.3-12.9-19c1.7-8.7,10.4-14.6,19-12.8c8.6,1.8,14.3,10.2,12.7,18.8
					C562.4,371.1,553.8,377,545.1,375.4z"/>
				<path class="st5" d="M702.2,294.3c8.7,1.6,14.6,10.2,13,18.9c-1.7,8.7-10.3,14.6-18.9,12.9c-8.6-1.7-14.4-10.1-12.9-18.7
					C685,298.7,693.6,292.7,702.2,294.3z"/>
				<path class="st5" d="M469.9,450.4c-8.7-1.5-14.7-10.1-13-18.8c1.6-8.6,10-14.4,18.6-12.9c8.7,1.5,14.7,10.1,13,18.8
					C486.9,446.1,478.5,451.9,469.9,450.4z"/>
				<path class="st5" d="M758.8,330.9c1-4.7,4.5-9,10.4-11c5.9-2.1,11.3-0.9,16.1,3c2.4,1.9,3.7,4.4,3.5,7.5
					c-0.2,3.9-0.4,7.8-0.8,11.7c-0.6,5.6-6.7,9.8-13.7,9.7C764.2,351.6,756.6,342.3,758.8,330.9z"/>
				<path class="st5" d="M734,307.6c1.5-8.7,9.8-14.5,18.5-13c8.8,1.5,14.7,9.9,13.1,18.7c-1.6,8.7-9.9,14.4-18.6,12.8
					C738.2,324.6,732.4,316.3,734,307.6z"/>
				<path class="st5" d="M633.4,306.8c1.8-8.7,10.2-14.2,18.8-12.3c8.7,1.8,14.2,10.2,12.3,18.8c-1.8,8.7-10.2,14.2-18.8,12.3
					C637,323.8,631.6,315.5,633.4,306.8z"/>
				<path class="st5" d="M430.1,557.3c1.8-7.2,7.4-12.6,14.4-13.6c7.2-1,14.1,2.8,17.2,9.3c3,6.4,1.5,14.2-3.7,19
					c-2.4,2.2-4.7,3.9-8.5,2c-4.5-2.1-9.5-3.4-14.4-4.6c-2.3-0.6-3.2-1.8-3.7-3.7C430.8,563,430.5,560.2,430.1,557.3z"/>
				<path class="st5" d="M558.1,332c1.6-8.8,9.7-14.4,18.5-12.8c8.8,1.6,14.4,9.8,12.7,18.5c-1.6,8.6-9.6,14.2-18.3,12.7
					C562.2,348.8,556.5,340.7,558.1,332z"/>
				<path class="st5" d="M437.6,537.8c-1.5,8.8-9.7,14.5-18.4,12.9c-8.6-1.6-14.2-9.6-12.7-18.2c1.5-8.8,9.7-14.5,18.4-12.9
					C433.5,521.1,439.1,529.2,437.6,537.8z"/>
				<path class="st5" d="M450.5,443.8c8.8,1.6,14.4,9.7,12.8,18.5c-1.6,8.6-9.6,14.2-18.3,12.7c-8.8-1.6-14.4-9.7-12.8-18.5
					C433.8,447.9,441.9,442.3,450.5,443.8z"/>
				<path class="st5" d="M595.9,324.7c-8.4-1.5-14.1-9.8-12.6-18.1c1.5-8.5,9.9-14.3,18.4-12.6c8.4,1.6,14,9.9,12.4,18.3
					C612.5,320.6,604.3,326.2,595.9,324.7z"/>
				<path class="st5" d="M406.8,482c1.5-8.4,9.8-14.1,18.2-12.6c8.4,1.5,14.1,9.8,12.6,18.2c-1.5,8.4-9.8,14.1-18.2,12.6
					C411,498.6,405.3,490.3,406.8,482z"/>
				<path class="st5" d="M709,282.1c1.4-8.3,9.7-14.2,18.1-12.7c8.4,1.5,14.1,9.8,12.6,18.1c-1.5,8.2-9.6,13.9-17.9,12.6
					C713.5,298.8,707.6,290.5,709,282.1z"/>
				<path class="st5" d="M659.4,281.9c1.6-8.4,9.9-14.1,18.2-12.4c8.3,1.7,13.8,9.8,12.3,18c-1.6,8.4-9.9,14.1-18.2,12.4
					C663.4,298.3,657.8,290.1,659.4,281.9z"/>
				<path class="st5" d="M457.8,381.3c1.6-8.4,9.5-13.8,17.9-12.3c8.4,1.6,13.8,9.5,12.3,17.9c-1.6,8.4-9.5,13.8-17.9,12.3
					C461.7,397.7,456.2,389.7,457.8,381.3z"/>
				<path class="st5" d="M495.4,374.5c-8.4-1.7-13.7-9.7-12-18.1c1.7-8.4,9.7-13.7,18.1-12c8.4,1.7,13.7,9.7,12,18
					C511.7,370.8,503.7,376.1,495.4,374.5z"/>
				<path class="st5" d="M626.8,269.5c8.5,1.5,13.9,9.3,12.4,17.7c-1.5,8.3-9.2,13.7-17.5,12.3c-8.5-1.5-13.9-9.3-12.4-17.7
					C610.8,273.5,618.5,268.1,626.8,269.5z"/>
				<path class="st5" d="M450.6,394.7c8.4,1.6,13.8,9.4,12.1,17.9c-1.6,8.3-9.4,13.6-17.7,12c-8.4-1.6-13.8-9.4-12.2-17.9
					C434.5,398.4,442.3,393.1,450.6,394.7z"/>
				<path class="st5" d="M538.2,337.5c-1.6,8.4-9.6,13.6-18,11.9c-8.2-1.7-13.4-9.5-11.8-17.9c1.6-8.4,9.6-13.6,18-11.9
					C534.7,321.4,539.8,329.2,538.2,337.5z"/>
				<path class="st5" d="M394.6,524.5c-8.3-1.5-13.8-9.2-12.4-17.5c1.5-8.5,9.3-13.9,17.7-12.4c8.3,1.5,13.7,9.3,12.2,17.6
					C410.6,520.6,402.9,526,394.6,524.5z"/>
				<path class="st5" d="M563.8,312c-1.5,8.2-9.5,13.6-17.7,12c-8.2-1.6-13.5-9.5-11.9-17.8c1.6-8.1,9.4-13.3,17.5-11.8
					C559.9,295.9,565.3,303.8,563.8,312z"/>
				<path class="st5" d="M425,419.5c8.2,1.5,13.7,9.4,12.1,17.6c-1.5,8.1-9.4,13.5-17.5,12c-8.2-1.5-13.7-9.4-12.1-17.6
					C409,423.5,416.9,418.1,425,419.5z"/>
				<path class="st5" d="M684.8,257.2c1.4-8,9.4-13.6,17.4-12.1c8,1.5,13.5,9.5,12,17.5c-1.5,7.9-9.3,13.3-17.2,12
					C689,273.2,683.4,265.3,684.8,257.2z"/>
				<path class="st5" d="M752.4,245.3c8,1.3,13.6,9.3,12.1,17.3c-1.5,7.9-9.2,13.3-17.2,12c-8-1.3-13.6-9.3-12.1-17.3
					C736.7,249.4,744.4,244,752.4,245.3z"/>
				<path class="st5" d="M382.8,456.5c1.5-8,9.2-13.3,17.2-11.8c8.1,1.5,13.5,9.5,11.9,17.5c-1.6,8-9.4,13.2-17.3,11.7
					C386.6,472.2,381.3,464.4,382.8,456.5z"/>
				<path class="st5" d="M576.5,269.8c8,1.4,13.4,9.1,12,17.1c-1.4,8.1-9.3,13.6-17.4,12c-8-1.5-13.3-9.3-11.8-17.2
					C560.8,273.7,568.5,268.4,576.5,269.8z"/>
				<path class="st5" d="M777.5,269.8c6.3,1.8,7.9,2.4,8.2,8.6c0.3,4.2,1.2,8.3,1.4,12.5c0.1,1.6-0.6,3.7-1.7,4.8
					c-5,5.3-13.2,6-19.2,2c-6.2-4.1-8.5-11.9-5.6-18.8C763.3,272.4,770.5,268.5,777.5,269.8z"/>
				<path class="st5" d="M634.7,257c1.5-8,9.1-13.3,17.1-11.8c8,1.5,13.3,9.1,11.8,17.1c-1.5,8-9.1,13.3-17.1,11.8
					C638.5,272.7,633.2,265.1,634.7,257z"/>
				<path class="st5" d="M445.4,373.5c-7.9-1.5-13.1-9.1-11.5-17c1.5-7.8,9-12.9,16.8-11.4c7.9,1.5,13.1,9.1,11.5,17
					C460.7,369.8,453.2,374.9,445.4,373.5z"/>
				<path class="st5" d="M602.1,245.4c7.8,1.5,12.9,9.1,11.4,16.8c-1.5,7.9-9.2,13.1-17.1,11.5c-7.7-1.6-12.8-9.2-11.2-17
					C586.8,249.1,594.4,244,602.1,245.4z"/>
				<path class="st5" d="M475.5,320.2c7.8,1.4,13,8.9,11.6,16.7c-1.4,7.9-9.1,13.2-17,11.6c-7.7-1.5-12.9-9.1-11.4-16.8
					C460.2,323.9,467.7,318.8,475.5,320.2z"/>
				<path class="st5" d="M496.1,323.2c-7.7-1.3-13.1-8.9-11.7-16.6c1.3-7.8,8.9-13.1,16.6-11.7c7.7,1.3,13.1,8.9,11.7,16.6
					C511.4,319.2,503.9,324.5,496.1,323.2z"/>
				<path class="st5" d="M425,369.8c7.7,1.4,13,9,11.6,16.7c-1.4,7.7-9,13-16.7,11.6c-7.7-1.4-13-9-11.6-16.7
					C409.7,373.7,417.3,368.4,425,369.8z"/>
				<path class="st5" d="M369.2,498.7c-7.7-1.4-13-9-11.6-16.7c1.4-7.7,9-13,16.7-11.6c7.7,1.4,13,9,11.6,16.7
					C384.5,494.9,376.9,500.1,369.2,498.7z"/>
				<path class="st5" d="M727.4,221c7.7,1.3,13.1,8.9,11.7,16.6c-1.4,7.6-8.8,12.8-16.5,11.5c-7.7-1.3-13.1-8.9-11.7-16.6
					C712.4,225,719.8,219.7,727.4,221z"/>
				<path class="st5" d="M672.4,248.3c-7.6-1.3-12.9-8.7-11.6-16.3c1.2-7.7,8.9-13.1,16.6-11.7c7.6,1.4,12.8,8.8,11.5,16.5
					C687.5,244.4,680,249.6,672.4,248.3z"/>
				<path class="st5" d="M394.8,423.3c-7.7-1.5-12.7-8.9-11.2-16.5c1.5-7.7,8.9-12.7,16.5-11.2c7.7,1.5,12.7,8.9,11.2,16.5
					C409.8,419.8,402.4,424.8,394.8,423.3z"/>
				<path class="st5" d="M537.3,287.1c-1.7,7.7-9.2,12.5-16.8,10.9c-7.7-1.7-12.5-9.2-10.9-16.8c1.7-7.7,9.2-12.5,16.8-10.9
					C534.1,272.1,539,279.6,537.3,287.1z"/>
				<path class="st5" d="M369.8,447.9c-7.6-1.5-12.4-8.7-10.8-16.4c1.5-7.6,8.8-12.3,16.5-10.8c7.4,1.5,12.2,8.7,10.7,16.2
					C384.7,444.6,377.5,449.4,369.8,447.9z"/>
				<path class="st5" d="M610.7,231.7c1.4-7.7,8.5-12.6,16.2-11.2c7.7,1.4,12.6,8.5,11.1,16.2c-1.4,7.5-8.4,12.4-16,11.1
					C614.4,246.5,609.4,239.4,610.7,231.7z"/>
				<path class="st5" d="M551.5,245.8c7.6,1.4,12.6,8.6,11.1,16.2c-1.4,7.5-8.6,12.3-16,11c-7.6-1.4-12.6-8.6-11.1-16.2
					C536.8,249.4,544,244.5,551.5,245.8z"/>
				<path class="st5" d="M333.7,456.7c1.3-7.4,8.4-12.3,15.7-10.9c7.4,1.4,12.2,8.5,10.8,15.8c-1.4,7.3-8.3,12-15.6,10.8
					C337.4,471.1,332.4,464.1,333.7,456.7z"/>
				<path class="st5" d="M736.8,207.3c1.3-7.4,8.4-12.3,15.7-10.9c7.4,1.3,12.3,8.4,10.9,15.8c-1.4,7.3-8.3,12-15.5,10.8
					C740.4,221.7,735.5,214.7,736.8,207.3z"/>
				<path class="st5" d="M686.4,207c1.4-7.4,8.5-12.2,15.8-10.8c7.4,1.4,12.2,8.5,10.8,15.9c-1.4,7.3-8.3,12-15.6,10.7
					C690,221.5,685.1,214.4,686.4,207z"/>
				<path class="st5" d="M435.1,306.4c1.4-7.3,8.2-12,15.5-10.6c7.4,1.4,12.1,8.3,10.7,15.8c-1.4,7.3-8.3,11.9-15.6,10.4
					C438.3,320.5,433.7,313.7,435.1,306.4z"/>
				<path class="st5" d="M636.2,207.1c1.3-7.4,8-12.2,15.3-10.9c7.5,1.3,12.3,8.1,11,15.5c-1.3,7.3-8.1,12-15.4,10.7
					C639.7,221.1,634.9,214.4,636.2,207.1z"/>
				<path class="st5" d="M410.1,331.2c1.4-7.4,8.4-12.1,15.8-10.6c7.3,1.5,11.9,8.3,10.5,15.6c-1.4,7.4-8.4,12.1-15.8,10.6
					C413.3,345.4,408.7,338.5,410.1,331.2z"/>
				<path class="st5" d="M571.6,247.2c-7.4-1.4-12.2-8.3-10.7-15.8c1.4-7.3,8.3-12,15.6-10.6c7.4,1.4,12.2,8.3,10.7,15.8
					C585.8,243.8,578.9,248.5,571.6,247.2z"/>
				<path class="st5" d="M460,281.7c1.3-7.4,8.1-12.1,15.5-10.7c7.4,1.3,12,8.2,10.6,15.5c-1.3,7.2-8.1,11.9-15.3,10.6
					C463.5,295.8,458.7,289,460,281.7z"/>
				<path class="st5" d="M384.6,356.7c1.3-7.4,8.1-12,15.5-10.7c7.3,1.4,12,8.2,10.6,15.6c-1.4,7.2-8.1,11.8-15.3,10.6
					C388,370.8,383.2,364.1,384.6,356.7z"/>
				<path class="st5" d="M375,371c7.1,1.3,11.9,8.2,10.6,15.3c-1.3,7.1-8.2,11.9-15.3,10.6c-7.1-1.3-11.9-8.2-10.6-15.3
					C361,374.5,367.9,369.7,375,371z"/>
				<path class="st5" d="M485.8,256.4c1.2-7.1,8.2-11.9,15.3-10.6c7.1,1.3,11.9,8.3,10.5,15.3c-1.3,6.9-8.1,11.7-15.1,10.5
					C489.5,270.4,484.6,263.5,485.8,256.4z"/>
				<path class="st5" d="M597.3,222.1c-7-1.2-12-8.2-10.7-15.3c1.3-6.9,8.1-11.7,15.1-10.5c7,1.2,12,8.2,10.7,15.3
					C611.1,218.5,604.3,223.3,597.3,222.1z"/>
				<path class="st5" d="M349.5,395.9c7,1.3,11.7,8.2,10.4,15.1c-1.3,7-8.3,11.7-15.2,10.3c-6.9-1.4-11.5-8.1-10.3-15
					C335.7,399.4,342.5,394.7,349.5,395.9z"/>
				<path class="st5" d="M521.3,246.4c-7.1-1.3-11.7-8-10.3-15.1c1.4-6.9,8-11.4,14.9-10.1c7.1,1.3,11.7,8,10.3,15.1
					C534.9,243.2,528.3,247.7,521.3,246.4z"/>
				<path class="st5" d="M712.7,182.4c1.3-7,7.8-11.5,14.8-10.2c7,1.3,11.5,7.8,10.2,14.9c-1.3,7-7.8,11.5-14.9,10.2
					C715.9,195.9,711.4,189.4,712.7,182.4z"/>
				<path class="st5" d="M662.3,182.4c1.2-7.1,7.6-11.6,14.7-10.4c7.1,1.2,11.6,7.7,10.3,14.7c-1.3,6.9-7.6,11.4-14.5,10.3
					C665.7,195.9,661.1,189.5,662.3,182.4z"/>
				<path class="st5" d="M324.5,421.8c6.8,1.3,11.3,7.9,10,14.7c-1.3,6.8-7.9,11.3-14.7,10c-6.8-1.3-11.3-7.9-10-14.7
					C311.1,425,317.7,420.5,324.5,421.8z"/>
				<path class="st5" d="M626.6,172.1c6.8,1.2,11.4,7.8,10.1,14.6c-1.2,6.7-7.9,11.3-14.6,10c-6.6-1.3-11.1-7.8-10-14.4
					C613.3,175.5,619.9,170.9,626.6,172.1z"/>
				<path class="st5" d="M546.9,221.4c-6.7-1.3-11.3-8-10-14.7c1.3-6.7,8-11.2,14.7-9.9c6.6,1.3,11.1,7.9,9.9,14.5
					C560.3,218,553.6,222.6,546.9,221.4z"/>
				<path class="st5" d="M411.2,281.7c1.3-6.7,7.8-11.1,14.4-9.8c6.7,1.3,11.1,7.9,9.7,14.5c-1.4,6.6-7.7,10.9-14.3,9.7
					C414.5,294.9,410,288.3,411.2,281.7z"/>
				<path class="st5" d="M409.8,311.3c-1.5,6.7-8.2,10.9-14.7,9.4c-6.7-1.6-10.9-8.3-9.3-14.8c1.6-6.6,8.1-10.7,14.5-9.3
					C407,298.1,411.3,304.8,409.8,311.3z"/>
				<path class="st5" d="M384.9,335.9c-1.3,6.6-7.6,10.9-14.3,9.6c-6.8-1.3-11.1-7.8-9.6-14.5c1.4-6.6,7.8-10.8,14.4-9.4
					C382,323,386.2,329.3,384.9,335.9z"/>
				<path class="st5" d="M450.6,246.6c6.7,1.3,10.9,7.4,9.7,14.1c-1.3,6.7-7.4,10.9-14.1,9.7c-6.7-1.3-10.9-7.4-9.7-14.1
					C437.7,249.6,443.9,245.3,450.6,246.6z"/>
				<path class="st5" d="M333.7,505.1c2.7-6.3,7.6-9.7,13.4-9.6c5.9,0.2,11,3.8,12.9,9.3c1.9,5.5,0.2,11.5-4.2,15.4
					c-2,1.8-3.7,2.1-5.8,0.1C344.6,515.1,339.1,510,333.7,505.1z"/>
				<path class="st5" d="M349.3,347.1c6.6,1.2,10.9,7.2,9.8,13.8c-1.2,6.7-7.3,11.1-14,9.8c-6.5-1.2-10.8-7.3-9.6-13.9
					C336.6,350.2,342.7,345.9,349.3,347.1z"/>
				<path class="st5" d="M572.1,195.4c-6.5-1.2-10.9-7.3-9.7-13.8c1.2-6.5,7.3-10.9,13.8-9.7c6.5,1.2,10.9,7.3,9.7,13.8
					C584.8,192.2,578.6,196.5,572.1,195.4z"/>
				<path class="st5" d="M475.9,222c6.5,1.1,10.9,7.3,9.8,13.8c-1.1,6.5-7.3,10.9-13.8,9.8c-6.5-1.1-10.9-7.3-9.8-13.8
					C463.2,225.2,469.4,220.8,475.9,222z"/>
				<path class="st5" d="M702,147.3c6.5,1.2,10.8,7.4,9.6,13.9c-1.2,6.5-7.4,10.8-13.9,9.6c-6.5-1.2-10.8-7.4-9.6-13.9
					C689.3,150.4,695.5,146.1,702,147.3z"/>
				<path class="st5" d="M310.7,381.6c1.2-6.3,7.5-10.6,13.8-9.5c6.3,1.2,10.6,7.5,9.5,13.8c-1.2,6.3-7.5,10.6-13.8,9.5
					C313.9,394.2,309.6,387.9,310.7,381.6z"/>
				<path class="st5" d="M652.2,147.4c6.3,1.2,10.6,7.5,9.5,13.8c-1.2,6.3-7.5,10.6-13.8,9.5c-6.3-1.2-10.6-7.5-9.5-13.8
					C639.6,150.6,645.9,146.2,652.2,147.4z"/>
				<path class="st5" d="M487.2,206.9c1-6.3,7.3-10.7,13.6-9.6c6.3,1.1,10.7,7.4,9.5,13.7c-1.1,6.2-7.2,10.5-13.4,9.5
					C490.7,219.5,486.2,213.3,487.2,206.9z"/>
				<path class="st5" d="M588.5,156.7c1.2-6.2,7-10.2,13.2-9.1c6.4,1.2,10.4,7.1,9.1,13.5c-1.2,6.2-7.1,10.1-13.3,8.9
					C591.3,168.8,587.4,163,588.5,156.7z"/>
				<path class="st5" d="M285.6,406.5c1.1-6.3,6.9-10.3,13.2-9.2c6.4,1.1,10.4,7,9.2,13.4c-1.2,6.2-7,10.2-13.3,9
					C288.5,418.5,284.5,412.7,285.6,406.5z"/>
				<path class="st5" d="M513.3,181.6c1.1-6.2,7-10.3,13.2-9.2c6.1,1.1,10.2,7.1,9.1,13.2c-1.1,6-6.9,10.1-13,9
					C516.4,193.6,512.2,187.7,513.3,181.6z"/>
				<path class="st5" d="M382.4,544.5c-8.1-5.8-15.9-11.3-23.8-16.9c3.3-5.3,7.6-8,13.4-7.8c6.4,0.2,11,3.4,13.3,9.3
					C387.5,534.4,386.4,539.4,382.4,544.5z"/>
				<path class="st5" d="M326,496.8c-4.7-5.8-9.4-11.4-14.1-17c-1.4-1.6-0.8-2.7,0.4-4c3.5-3.8,9.3-5.3,14-3.5
					c5.5,2.1,8.8,6.9,8.7,12.8C335,490.2,331.5,494.8,326,496.8z"/>
				<path class="st5" d="M362,281.8c1.1-6,7.1-10.1,13.1-9c5.9,1.2,9.9,7,8.8,12.9c-1.1,6-7.1,10.1-13.1,9
					C365,293.5,361,287.7,362,281.8z"/>
				<path class="st5" d="M408.8,260.3c-1.1,5.9-6.8,9.9-12.7,8.9c-6-1-10.1-6.9-8.9-12.9c1.2-5.9,6.9-9.8,12.8-8.7
					C405.9,248.6,409.9,254.3,408.8,260.3z"/>
				<path class="st5" d="M677,123.3c5.9,1.1,9.9,6.8,8.9,12.7c-1.1,6-7,10.1-13,8.9c-5.9-1.2-9.8-7-8.7-12.9
					C665.3,126.2,671.1,122.3,677,123.3z"/>
				<path class="st5" d="M425.6,222.9c6,1.2,9.8,6.8,8.6,12.8c-1.2,6-6.9,9.7-12.9,8.5c-5.9-1.2-9.6-6.7-8.5-12.7
					C413.9,225.5,419.6,221.7,425.6,222.9z"/>
				<path class="st5" d="M349.3,297.8c6,1.1,9.9,6.6,8.8,12.7c-1.1,6-6.7,9.9-12.8,8.7c-5.9-1.1-9.7-6.6-8.7-12.5
					C337.7,300.6,343.3,296.7,349.3,297.8z"/>
				<path class="st5" d="M333.1,335.3c-1.1,5.9-6.6,9.7-12.5,8.6c-5.9-1.1-9.7-6.6-8.6-12.5c1.1-5.9,6.6-9.7,12.5-8.6
					C330.4,323.9,334.2,329.4,333.1,335.3z"/>
				<path class="st5" d="M538.8,156.8c1-6,6.5-9.8,12.4-8.7c6,1.1,9.8,6.5,8.7,12.4c-1,6-6.5,9.8-12.4,8.7
					C541.5,168.2,537.7,162.8,538.8,156.8z"/>
				<path class="st5" d="M438,206.2c1-5.9,6.6-9.7,12.5-8.7c5.9,1.1,9.7,6.7,8.6,12.5c-1.1,5.7-6.5,9.5-12.3,8.5
					C440.8,217.6,436.9,212.1,438,206.2z"/>
				<path class="st5" d="M622.9,144.5c-5.9-1-9.8-6.5-8.8-12.4c1-5.9,6.6-9.7,12.5-8.7c5.8,1.1,9.6,6.5,8.6,12.2
					C634.2,141.6,628.7,145.5,622.9,144.5z"/>
				<path class="st5" d="M287.1,357c1-5.6,6.7-9.6,12.3-8.5c5.6,1.1,9.5,6.8,8.4,12.4c-1.1,5.5-6.6,9.3-12.1,8.4
					C290.1,368.3,286.1,362.6,287.1,357z"/>
				<path class="st5" d="M463.8,181.4c1.1-5.6,6.6-9.3,12.1-8.3c5.7,1,9.6,6.8,8.4,12.4c-1.2,5.6-6.8,9.3-12.3,8.1
					C466.4,192.5,462.7,186.9,463.8,181.4z"/>
				<path class="st5" d="M564.3,132.1c1-5.6,6.1-9.2,11.8-8.2c5.6,1,9.2,6.2,8.2,11.8c-1,5.6-6.1,9.2-11.8,8.2
					C566.9,142.8,563.3,137.7,564.3,132.1z"/>
				<path class="st5" d="M779.5,248.3c-7.7,2.2-14.8-0.9-17.6-7.5c-2.8-6.4-0.4-13.8,5.4-17.6c2.1-1.4,3.3-1.5,4.2,1.4
					C774.1,232.5,776.8,240.4,779.5,248.3z"/>
				<path class="st5" d="M648.4,118.4c-5.3-1-9-6.5-7.9-11.7c1.1-5.2,6.4-8.7,11.6-7.8c5.3,1,9,6.5,7.9,11.7
					C658.9,115.8,653.6,119.4,648.4,118.4z"/>
				<path class="st5" d="M489.1,156.8c0.9-5.3,6.2-9.1,11.5-8.1c5.3,0.9,9.1,6.2,8.1,11.5c-0.9,5.3-6.2,9.1-11.5,8.1
					C491.9,167.4,488.2,162.2,489.1,156.8z"/>
				<path class="st5" d="M363.8,231.6c1-5.2,5.9-8.5,11.2-7.5c5.2,1,8.5,5.9,7.5,11.2c-1,5.2-5.9,8.5-11.2,7.5
					C366,241.7,362.8,236.8,363.8,231.6z"/>
				<path class="st5" d="M338.8,256.4c1-5.3,5.9-8.6,11.1-7.6c5.4,1,8.7,6,7.6,11.4c-1.1,5.2-6,8.4-11.3,7.4
					C341.1,266.6,337.8,261.7,338.8,256.4z"/>
				<path class="st5" d="M396.2,217.2c-5.2-1-8.5-6.1-7.3-11.3c1.1-5.1,6-8.2,11.1-7.2c5.2,1,8.5,6.1,7.3,11.3
					C406.3,215,401.4,218.2,396.2,217.2z"/>
				<path class="st5" d="M313.4,281.1c1-5.2,6.1-8.5,11.3-7.3c5,1.1,8.2,6,7.2,11.1c-1,5.2-6.1,8.5-11.3,7.3
					C315.6,291.1,312.4,286.2,313.4,281.1z"/>
				<path class="st5" d="M609.2,110.3c-1,5.2-6,8.5-11.2,7.4c-5.1-1.1-8.3-5.9-7.3-11.1c1-5.2,6-8.5,11.2-7.4
					C606.9,100.3,610.1,105.2,609.2,110.3z"/>
				<path class="st5" d="M515.4,131.4c0.9-5.1,5.9-8.5,11-7.5c5.1,0.9,8.5,5.9,7.5,11c-0.9,5.1-5.9,8.5-11,7.5
					C517.8,141.4,514.4,136.5,515.4,131.4z"/>
				<path class="st5" d="M273.8,373.5c5.5,1,9.1,6,8.3,11.5c-0.8,5.6-5.7,9.4-11.1,8.8c-1.7-0.2-2.6-0.8-3-2.5
					c-1-4.5-2.2-8.9-3.2-13.4c-0.2-0.7,0.3-2,0.8-2.2c2.6-1.1,5.3-2,7.9-3C273.6,373,273.7,373.3,273.8,373.5z"/>
				<path class="st5" d="M288.5,306.8c0.9-5,5.9-8.5,10.9-7.6c5,0.9,8.4,6,7.5,11c-1,4.9-5.8,8.2-10.7,7.4
					C291.1,316.8,287.6,311.8,288.5,306.8z"/>
				<path class="st5" d="M484.1,572.1c0.3,0.4,0.6,0.7,0.8,1.1c1.5,2.8,2.9,5.6,4.8,9.1c-11.2-2-21.4-3.9-31.6-5.7
					c1.8-5.2,9.3-9.5,15.9-8.3C477.5,568.9,480.7,570.8,484.1,572.1z"/>
				<path class="st5" d="M425.3,174.1c4.9,0.9,8.3,5.8,7.5,10.7c-0.8,5-6,8.5-10.9,7.5c-4.9-1-8.2-5.9-7.3-10.8
					C415.5,176.6,420.4,173.2,425.3,174.1z"/>
				<path class="st5" d="M273.6,324.3c5,0.9,8.2,5.3,7.4,10.3c-0.8,5.1-5.5,8.4-10.5,7.4c-5-0.9-8.1-5.5-7.2-10.4
					C264.2,326.7,268.7,323.5,273.6,324.3z"/>
				<path class="st5" d="M446.9,167c-4.9-1-7.9-5.6-6.9-10.5c1-4.7,5.6-7.7,10.3-6.8c4.9,1,7.9,5.6,6.9,10.5
					C456.2,164.9,451.7,167.9,446.9,167z"/>
				<path class="st5" d="M540.9,106.7c0.9-4.7,5.5-7.9,10.2-7.1c4.7,0.9,7.9,5.5,7.1,10.2c-0.9,4.7-5.5,7.9-10.2,7
					C543.2,116.1,540,111.4,540.9,106.7z"/>
				<path class="st5" d="M623.2,92.2c-4.7-0.9-7.9-5.6-7-10.3c0.9-4.5,5.5-7.7,10-6.9c4.7,0.9,8,5.4,7.1,10.1
					C632.6,89.8,627.9,93.1,623.2,92.2z"/>
				<path class="st5" d="M472.8,141.2c-4.6-0.8-7.6-5-6.8-9.6c0.8-4.7,5.1-7.7,9.9-6.8c4.6,0.9,7.5,5.1,6.6,9.7
					C481.6,139.1,477.4,142,472.8,141.2z"/>
				<path class="st5" d="M303.9,468.7c-4.2-7-8.4-13.7-12.5-20.5c5.5-2.8,11.8-1.2,15.3,3.7C310.3,457.1,309.4,463.6,303.9,468.7z"
					/>
				<path class="st5" d="M567.2,82.1c0.8-4.3,5.2-7.2,9.4-6.3c4.3,0.9,7.1,5.2,6.2,9.4c-0.9,4.1-5.1,6.9-9.2,6.2
					C569.4,90.6,566.4,86.3,567.2,82.1z"/>
				<path class="st5" d="M315.1,231.8c0.8-4.3,4.7-7,9-6.3c4.4,0.8,7.2,4.9,6.3,9.2c-0.9,4.2-4.9,6.9-9.1,6.1
					C317,240.1,314.3,236.1,315.1,231.8z"/>
				<path class="st5" d="M346.9,215.5c-4.3-0.8-7-4.8-6.2-9c0.8-4.4,4.9-7.2,9.3-6.2c4.2,0.9,6.9,4.9,6,9.2
					C355.2,213.6,351.2,216.3,346.9,215.5z"/>
				<path class="st5" d="M290.3,256.6c0.8-4.3,4.8-6.9,9.1-6c4.3,0.9,6.8,4.8,5.9,9.1c-0.9,4.1-4.7,6.7-8.9,5.9
					C292.1,264.8,289.5,260.9,290.3,256.6z"/>
				<path class="st5" d="M264.8,281.6c0.7-4.2,4.5-6.9,8.6-6.3c4.3,0.7,7.1,4.6,6.3,8.9c-0.8,4.2-4.6,6.8-8.8,6.1
					C266.8,289.6,264.1,285.7,264.8,281.6z"/>
				<path class="st5" d="M365.8,181.7c0.7-4.2,4.5-6.9,8.7-6.2c4.3,0.7,7,4.7,6.2,8.9c-0.8,4.1-4.7,6.8-8.8,6
					C367.8,189.7,365.1,185.9,365.8,181.7z"/>
				<path class="st5" d="M491.6,106.6c0.8-4.3,4.8-6.9,9.1-6c4.3,0.9,6.8,4.8,5.9,9.1c-0.9,4.1-4.7,6.7-8.9,5.9
					C493.4,114.9,490.8,111,491.6,106.6z"/>
				<path class="st5" d="M387.7,547.6c6.2-3.7,11.6-4,16.9-1c5.1,2.9,7.6,7.4,7.9,14.1C404.1,556.2,396.3,552.1,387.7,547.6z"/>
				<path class="st5" d="M400.1,150.9c3.9,0.7,6.7,4.6,6.1,8.5c-0.6,4-4.8,6.9-8.8,6.1c-3.9-0.8-6.6-4.7-5.9-8.7
					C392.2,153,396.1,150.3,400.1,150.9z"/>
				<path class="st5" d="M422.6,139.6c-3.8-0.7-6.3-4.3-5.5-8.1c0.7-3.8,4.3-6.2,8.1-5.5c3.8,0.7,6.3,4.3,5.5,8.1
					C429.9,137.9,426.4,140.3,422.6,139.6z"/>
				<path class="st5" d="M526,76.6c3.8,0.8,6.2,4.4,5.4,8.2c-0.8,3.8-4.4,6.2-8.2,5.4c-3.8-0.8-6.2-4.4-5.4-8.2
					C518.6,78.2,522.2,75.8,526,76.6z"/>
				<path class="st5" d="M450.5,101.8c3.5,0.7,5.7,3.8,5.1,7.4c-0.6,3.5-3.8,5.7-7.4,5.1c-3.5-0.6-5.7-3.8-5.1-7.4
					C443.8,103.4,447,101.2,450.5,101.8z"/>
				<path class="st5" d="M324,177.3c3,0.6,5,3.6,4.4,6.5c-0.6,3.1-3.7,5.2-6.8,4.5c-2.9-0.7-4.9-3.7-4.2-6.7
					C318.1,178.7,321.1,176.7,324,177.3z"/>
				<path class="st5" d="M299,202.1c3.2,0.6,5.2,3.5,4.6,6.7c-0.6,3.2-3.6,5.1-6.8,4.5c-3-0.6-5-3.5-4.4-6.5
					C292.9,203.6,295.9,201.5,299,202.1z"/>
				<path class="st5" d="M473.3,88.8c-3.2-0.5-5.2-3.5-4.6-6.7c0.6-3.2,3.5-5.2,6.7-4.5c3,0.6,5,3.4,4.5,6.5
					C479.4,87.3,476.5,89.4,473.3,88.8z"/>
				<path class="st5" d="M349.8,152.1c2.9,0.7,4.9,3.9,4.1,6.7c-0.8,2.8-3.8,4.7-6.5,4c-2.9-0.7-4.9-3.9-4.1-6.7
					C344,153.3,347,151.5,349.8,152.1z"/>
				<path class="st5" d="M544.1,54.8c3.8,0.4,7.5,0.9,11.5,1.3c1,2.8,0,5-2.2,6.7c-2.2,1.6-4.6,1.8-7,0.3
					C543.8,61.6,543,59.2,544.1,54.8z"/>
				<path class="st5" d="M372.4,137.6c-2.9-0.6-4.6-3.2-3.9-6.1c0.6-2.8,3.3-4.5,6.2-3.8c2.7,0.6,4.3,3.2,3.8,5.9
					C377.9,136.5,375.3,138.2,372.4,137.6z"/>
				<path class="st5" d="M398.2,112.8c-2.7-0.4-4.5-3-4.1-5.7c0.4-2.8,3.2-4.7,5.9-4.2c2.7,0.5,4.4,3.1,4,5.8
					C403.4,111.5,400.8,113.3,398.2,112.8z"/>
				<path class="st5" d="M419.5,81.5c0.5-2.6,3-4.2,5.6-3.6c2.5,0.6,4,2.9,3.5,5.4c-0.5,2.6-3,4.2-5.6,3.6
					C420.4,86.3,419,84,419.5,81.5z"/>
				<path class="st5" d="M789,321.3c-5.9-5.9-6-14.9-0.6-20.9C788.6,307.4,788.8,314,789,321.3z"/>
				<path class="st5" d="M504,59.7c-0.7,0.6-2,2.3-3.5,2.6c-1.4,0.3-3.5-0.3-4.7-1.3c-1-0.8-1.4-2.8-1.2-4.2c0.1-0.6,2-1.2,3.1-1.5
					c1-0.3,2.2-0.4,3.3-0.4C503.6,54.8,504.7,56.1,504,59.7z"/>
				<path class="st5" d="M271.2,238.1c1.2-3.7,2.4-7.2,3.5-10.7c3,1.4,4.1,3.5,3.4,6.4C277.5,236.7,275.4,238.2,271.2,238.1z"/>
				<path class="st5" d="M787.3,350.3c-1,5.5-2,11.1-3,16.6c-2.8-6.2-1.9-11.7,2.2-16.8C786.8,350.1,787,350.2,787.3,350.3z"/>
				<path class="st5" d="M714,134.5c3.6,3.9,6.7,7.3,10,10.9C718.5,145.4,714.4,141.1,714,134.5z"/>
				<path class="st5" d="M697,120.2c-2.4-1.9-4.7-3.9-7.1-5.8c0.3-0.3,0.6-0.7,0.9-1c2.3,2,4.6,4,7,6
					C697.5,119.5,697.2,119.9,697,120.2z"/>
			</g>
		</g>
	</g>
</g>
<g id="OBJECTS">
	<g id="New_Symbol_1">
	</g>
	<g id="New_Symbol_2">
	</g>
	<g id="New_Symbol">
	</g>
	<g class="st6">
		<defs>
			<filter id="Adobe_OpacityMaskFilter" filterUnits="userSpaceOnUse" x="7" y="17.3" width="620" height="392.6">
				<feFlood  style="flood-color:white;flood-opacity:1" result="back"/>
				<feBlend  in="SourceGraphic" in2="back" mode="normal"/>
			</filter>
		</defs>
		<mask maskUnits="userSpaceOnUse" x="7" y="17.3" width="620" height="392.6" id="SVGID_4_">
			<g class="st7">
				
					<image style="overflow:visible;" width="2601" height="1653" xlink:href="53980EF4.jpg"  transform="matrix(0.24 0 0 0.24 5.0273 15.326)">
				</image>
			</g>
		</mask>
		<g class="st8">
			<path d="M627,409.9c0,0-53.5-9.8-308.2-9.8C64.2,400.2,7,409.9,7,409.9V17.3h620V409.9z"/>
		</g>
	</g>
	<g class="st9">
		<defs>
			<filter id="Adobe_OpacityMaskFilter_1_" filterUnits="userSpaceOnUse" x="7" y="21.3" width="620" height="393.6">
				<feFlood  style="flood-color:white;flood-opacity:1" result="back"/>
				<feBlend  in="SourceGraphic" in2="back" mode="normal"/>
			</filter>
		</defs>
		<mask maskUnits="userSpaceOnUse" x="7" y="21.3" width="620" height="393.6" id="SVGID_5_">
			<g class="st10">
				
					<image style="overflow:visible;" width="2601" height="1657" xlink:href="53980EF5.jpg"  transform="matrix(0.24 0 0 0.24 4.9883 19.2809)">
				</image>
			</g>
		</mask>
		<g class="st11">
			<path d="M627,414.9c0,0-53.5-14.8-308.2-14.8C64.2,400.2,7,414.9,7,414.9V21.3h620V414.9z"/>
		</g>
	</g>
	<radialGradient id="SVGID_6_" cx="0.5836" cy="-1.042" r="744.3522" gradientUnits="userSpaceOnUse">
		<stop  offset="0" style="stop-color:#5C00CC"/>
		<stop  offset="1" style="stop-color:#0A0152"/>
	</radialGradient>
	<rect x="0" y="-1.3" class="st12" width="634" height="393.6"/>
	<g>
		<line class="st13" x1="45.6" y1="347.1" x2="45.6" y2="362.8"/>
		<line class="st13" x1="37.8" y1="355" x2="53.5" y2="355"/>
	</g>
	<g>
		<line class="st14" x1="317.4" y1="205" x2="317.4" y2="220.6"/>
		<line class="st14" x1="309.5" y1="212.8" x2="325.2" y2="212.8"/>
	</g>
	<g>
		<line class="st15" x1="272.7" y1="57.2" x2="272.7" y2="68.9"/>
		<line class="st15" x1="266.9" y1="63" x2="278.6" y2="63"/>
	</g>
	<g>
		<line class="st16" x1="388.8" y1="337.5" x2="388.8" y2="349.2"/>
		<line class="st16" x1="382.9" y1="343.4" x2="394.7" y2="343.4"/>
	</g>
	<g>
		<line class="st17" x1="260.8" y1="280.6" x2="260.8" y2="308.6"/>
		<line class="st17" x1="246.8" y1="294.6" x2="274.8" y2="294.6"/>
	</g>
	<rect x="0" y="-1.3" class="st18" width="634" height="393.6"/>
	<radialGradient id="SVGID_7_" cx="105.5869" cy="273.3988" r="88.8432" gradientUnits="userSpaceOnUse">
		<stop  offset="0" style="stop-color:#CF06F2"/>
		<stop  offset="5.439490e-02" style="stop-color:#C706EF"/>
		<stop  offset="0.4974" style="stop-color:#8E03DC"/>
		<stop  offset="0.8253" style="stop-color:#6A01D1"/>
		<stop  offset="1" style="stop-color:#5C00CC"/>
	</radialGradient>
	<path class="st19" d="M197.1,305.9c0,33-26.7,59.7-59.7,59.7c-33,0-59.7-26.7-59.7-59.7c0-33,26.8-59.7,59.7-59.7
		C170.4,246.2,197.1,272.9,197.1,305.9z"/>
	<radialGradient id="SVGID_8_" cx="514.1069" cy="16.2596" r="146.2426" gradientUnits="userSpaceOnUse">
		<stop  offset="0" style="stop-color:#CF06F2"/>
		<stop  offset="5.439490e-02" style="stop-color:#C706EF"/>
		<stop  offset="0.4974" style="stop-color:#8E03DC"/>
		<stop  offset="0.8253" style="stop-color:#6A01D1"/>
		<stop  offset="1" style="stop-color:#5C00CC"/>
	</radialGradient>
	<circle class="st20" cx="566.4" cy="69.8" r="98.3"/>
	<path class="st21" d="M433.2,89.5c0,16.8-13.6,30.4-30.4,30.4c-16.8,0-30.4-13.6-30.4-30.4c0-16.8,13.6-30.4,30.4-30.4
		C419.6,59.1,433.2,72.7,433.2,89.5z"/>
	<linearGradient id="SVGID_9_" gradientUnits="userSpaceOnUse" x1="-26.4186" y1="302.835" x2="95.5799" y2="424.8336">
		<stop  offset="0" style="stop-color:#CF06F2"/>
		<stop  offset="1" style="stop-color:#5C00CC"/>
	</linearGradient>
	<path class="st22" d="M37.7,283.5c-46.1,0-83.5,37.4-83.5,83.5c0,46.1,37.4,83.5,83.5,83.5s83.5-37.4,83.5-83.5
		C121.1,320.8,83.8,283.5,37.7,283.5z M37.7,449.1c-45.4,0-82.2-36.8-82.2-82.2c0-45.4,36.8-82.2,82.2-82.2s82.2,36.8,82.2,82.2
		C119.9,412.3,83.1,449.1,37.7,449.1z"/>
	<g>
		<line class="st14" x1="584.6" y1="158.1" x2="584.6" y2="173.8"/>
		<line class="st14" x1="576.8" y1="165.9" x2="592.5" y2="165.9"/>
	</g>
	<linearGradient id="SVGID_10_" gradientUnits="userSpaceOnUse" x1="414.9046" y1="197.847" x2="513.5571" y2="296.4996">
		<stop  offset="0" style="stop-color:#CF06F2"/>
		<stop  offset="1" style="stop-color:#5C00CC"/>
	</linearGradient>
	<path class="st23" d="M466.7,182.2c-37.3,0-67.5,30.2-67.5,67.5c0,37.3,30.2,67.5,67.5,67.5c37.3,0,67.5-30.2,67.5-67.5
		C534.2,212.4,504,182.2,466.7,182.2z M466.7,314.5c-35.8,0-64.8-29-64.8-64.8c0-35.8,29-64.8,64.8-64.8c35.8,0,64.8,29,64.8,64.8
		C531.5,285.5,502.5,314.5,466.7,314.5z"/>
	<radialGradient id="SVGID_11_" cx="515.0773" cy="278.6715" r="70.2557" gradientUnits="userSpaceOnUse">
		<stop  offset="0" style="stop-color:#CF06F2"/>
		<stop  offset="5.439490e-02" style="stop-color:#C706EF"/>
		<stop  offset="0.4974" style="stop-color:#8E03DC"/>
		<stop  offset="0.8253" style="stop-color:#6A01D1"/>
		<stop  offset="1" style="stop-color:#5C00CC"/>
	</radialGradient>
	<path class="st24" d="M587.4,304.4c0,26.1-21.2,47.2-47.2,47.2c-26.1,0-47.2-21.2-47.2-47.2c0-26.1,21.2-47.2,47.2-47.2
		C566.3,257.1,587.4,278.3,587.4,304.4z"/>
	<rect x="0" y="-1.3" class="st18" width="634" height="393.6"/>
</g>
<g id="DESIGNED_BY_FREEPIK">
</g>
</svg>
