<?xml version="1.0" encoding="utf-8"?>
<!-- Generator: Adobe Illustrator 23.0.1, SVG Export Plug-In . SVG Version: 6.00 Build 0)  -->
<svg version="1.1" id="Capa_1" xmlns="http://www.w3.org/2000/svg" xmlns:xlink="http://www.w3.org/1999/xlink" x="0px" y="0px"
	 viewBox="0 0 622.1 212.5" style="enable-background:new 0 0 622.1 212.5;" xml:space="preserve">
<style type="text/css">
	.st0{fill:#FFFFFF;}
</style>
<g>
	<path class="st0" d="M174.5,84.4L122.9,136c-2.9,2.9-7.7,2.9-10.7,0c-1.5-1.5-2.2-3.4-2.2-5.3s0.7-3.9,2.2-5.3l55.4-55.4
		c-10.4-15.7-28.3-26.1-48.6-26.1c-32.2,0-58.3,26.1-58.3,58.3c0,6.2,1,12.2,2.8,17.8l51.6-51.6c2.9-2.9,7.7-2.9,10.7,0
		c1.5,1.5,2.2,3.4,2.2,5.3c0,1.9-0.7,3.9-2.2,5.3l-55.4,55.4c10.4,15.7,28.3,26.1,48.6,26.1c32.2,0,58.3-26.1,58.3-58.3
		C177.3,95.9,176.3,90,174.5,84.4z M90.5,138.2c-2,0-3.9-0.8-5.3-2.2c-2.9-2.9-2.9-7.7,0-10.7l57-57c2.9-2.9,7.7-2.9,10.7,0
		c1.4,1.4,2.2,3.3,2.2,5.3c0,2-0.8,3.9-2.2,5.3l-57,57C94.4,137.4,92.5,138.2,90.5,138.2z"/>
</g>
<g>
	<path class="st0" d="M281.4,67.1v68c0,3.5-3,6.3-6.5,6.3c-3.6,0-6.3-2.9-6.3-6.3V86.5l-16.6,23c-1.3,1.7-3.1,2.7-5.2,2.7h-0.1h-0.1
		c-2.1,0-4-0.9-5.3-2.7l-16.5-23V135c0,3.5-2.9,6.3-6.5,6.3c-3.5,0-6.3-2.9-6.3-6.3v-68c0-3.5,2.9-6.3,6.3-6.3c0.1,0,0.1,0,0.3,0
		c1.8,0,3.9,0.9,5.1,2.7l22.9,31.8l22.9-31.8c1.3-1.7,3.1-2.7,5.2-2.7c0,0,0,0,0.1,0C278.4,60.8,281.4,63.6,281.4,67.1z"/>
	<path class="st0" d="M351.5,89.9v27.2v16.4c0,15.4-12.2,27.5-27.5,27.5c-4.1,0-8.4-1.2-11.9-2.9c-3.2-1.4-4.4-5-3-8.2
		c1.5-2.8,5.4-4,8.2-2.5c2.2,1,4.4,1.6,6.7,1.6c6.8-0.1,12.6-4.5,14.4-10.5c-3.2,1.8-7.1,2.8-10.9,2.8c-13.3,0-24.1-10.9-24.1-24.2
		V89.9c0-3.5,2.9-6.1,6-6.1c3.6,0,6.1,2.7,6.1,6.1v27.2c0,6.7,5.4,11.8,12,11.8s11.9-5.1,11.9-11.8V89.9c0-3.5,2.5-6.1,6-6.1
		C348.6,83.8,351.5,86.4,351.5,89.9z"/>
	<path class="st0" d="M404,110h-14.2v25c0,3.5-2.9,6.3-6.5,6.3c-3.5,0-6.3-2.9-6.3-6.3v-68c0-3.6,2.9-6.3,6.3-6.3h0.1H404
		c13.7,0,24.8,11.1,24.8,24.8C428.8,99,417.7,110,404,110z M389.8,97.2H404c6.7,0,11.9-5.3,12-11.8c-0.1-6.7-5.3-12-12-12h-14.2
		V97.2z"/>
	<path class="st0" d="M491.7,112.7v22.6c0,3.3-2.8,6.1-6.1,6.1c-3,0-5.3-2.2-6-5c-4.4,3.1-9.6,5-15.3,5c-7.8,0-14.6-3.2-19.6-8.4
		c-5-5.3-7.8-12.4-7.8-20.3c0-8,2.9-15.1,7.8-20.3c5-5.3,11.8-8.6,19.6-8.6c5.8,0,10.9,2,15.3,5.1c0.7-2.9,3-5.1,6-5.1
		c3.3,0,6.1,2.8,6.1,6.2V112.7z M479.5,112.7c0-4.8-1.7-9-4.5-11.9c-2.8-3.1-6.7-4.7-10.7-4.7c-4.1,0-8.1,1.6-10.7,4.7
		c-2.8,2.9-4.4,7-4.4,11.9c0,4.7,1.6,8.9,4.4,11.9c2.7,2.9,6.6,4.5,10.7,4.5c4,0,8-1.6,10.7-4.5
		C477.8,121.6,479.5,117.4,479.5,112.7z"/>
	<path class="st0" d="M561.3,89.9v27.2v16.4c0,15.4-12.2,27.5-27.5,27.5c-4.1,0-8.4-1.2-11.9-2.9c-3.2-1.4-4.4-5-3-8.2
		c1.5-2.8,5.4-4,8.2-2.5c2.2,1,4.4,1.6,6.7,1.6c6.8-0.1,12.6-4.5,14.4-10.5c-3.2,1.8-7.1,2.8-10.9,2.8c-13.3,0-24.1-10.9-24.1-24.2
		V89.9c0-3.5,2.9-6.1,6-6.1c3.6,0,6.1,2.7,6.1,6.1v27.2c0,6.7,5.4,11.8,12,11.8c6.6,0,11.9-5.1,11.9-11.8V89.9c0-3.5,2.5-6.1,6-6.1
		C558.4,83.8,561.3,86.4,561.3,89.9z"/>
</g>
</svg>
